<svg width="40" height="40" viewBox="0 0 40 40" fill="none" xmlns="http://www.w3.org/2000/svg">
<path d="M22.4375 2.74336H20.6156L20.6219 0.505859H19.2469L19.25 2.74336H17.3875V4.01211H19.2531L19.2656 8.13398L20.6031 7.57773L20.6125 4.01211H22.4375V2.74336Z" fill="#614F46"/>
<path d="M15.5281 18.7059C15.5281 18.7059 5.01875 28.359 5.04375 28.509C5.06875 28.659 6.175 29.4652 6.175 29.4652L16.5625 26.1652L15.5281 18.7059ZM24.375 18.2246C24.375 18.2246 35.0844 28.3715 35.0312 28.5684C34.9937 28.7152 33.8562 29.184 33.8562 29.184C33.8562 29.184 22.7187 23.7652 22.7469 23.509C22.775 23.2527 24.375 18.2246 24.375 18.2246Z" fill="#896159"/>
<path d="M15.5469 20.766L6.15315 29.4473L6.15002 38.2598C6.15002 38.5535 6.30627 38.6754 6.5719 38.7035C6.83752 38.7316 33.7188 38.7941 33.8657 38.7379C33.8875 38.7285 33.925 38.2816 33.9188 37.9566C33.8906 35.941 33.8969 29.166 33.8969 29.166L24.225 20.1973L15.5469 20.766Z" fill="#C0B8B3"/>
<path d="M14.1875 13.8721C14.1188 13.4971 14.8813 13.2221 15.15 12.8658C15.4188 12.5096 18.4375 8.19082 18.7938 7.71895C19.1532 7.2502 19.4875 6.66895 19.8907 6.66895C20.2938 6.66895 20.9063 7.60644 21.2313 8.03457C21.7219 8.68457 24.5 12.5283 24.675 12.7314C24.9438 13.0439 25.6375 13.4252 25.6375 13.6939C25.6375 13.9408 24.1844 15.1033 24.1844 15.1033L15.3938 14.7439C15.3938 14.7439 14.275 14.3627 14.1875 13.8721Z" fill="#896159"/>
<path d="M15.1906 14.0844C15.1906 14.0844 24.4781 13.8937 24.5219 14.0062C24.5656 14.1187 24.5625 15.5125 24.5625 15.5125L18.9063 16.175L15.1719 15.525L15.1906 14.0844Z" fill="#BDB8B1"/>
<path d="M15.2406 37.9312L15.1719 15.525L24.5625 15.5L24.8844 37.9312H15.2406Z" fill="#5F4D4E"/>
<path d="M33.15 29.959L25.6906 23.1777L25.8594 37.9027L33.1781 37.9309L33.15 29.959ZM14.0844 23.7465L6.84998 30.2715L6.56873 35.4059L6.90935 37.9309H14.2L14.0844 23.7465ZM15.9312 15.4902L16.0719 37.9309L24.1437 37.934L23.9312 15.4996L15.9312 15.4902Z" fill="#EFEBEA"/>
<path d="M33.15 29.959L33.9125 30.6965L33.9219 37.9527L33.1781 37.9309L33.15 29.959ZM6.85002 30.2715L6.15002 30.959V37.9527L6.9094 37.9309L6.85002 30.2715Z" fill="#5F4D4E"/>
<path d="M17.0125 37.9309C17.0125 37.9309 16.9469 32.0309 16.9625 30.409C16.9812 28.7903 17.9594 27.234 20.0062 27.2403C22.1906 27.2465 23.0875 28.7653 23.0875 30.4653C23.0875 32.034 23.1437 37.934 23.1437 37.934L17.0125 37.9309Z" fill="#D27856"/>
<path d="M21.7344 31.2652H20.5594V29.1465H19.5281V31.2652H18.3344V32.3309H19.5281V36.6215H20.5594V32.3309H21.7344V31.2652Z" fill="#AC5832"/>
<path d="M22.6094 37.5004L17.5094 37.4598V37.2285C17.5094 36.9598 17.4969 30.6129 17.5094 30.3285C17.5344 29.7566 17.7875 27.891 19.9813 27.8254C20.7594 27.8066 21.3782 28.0129 21.8313 28.4535C22.5375 29.141 22.575 30.1441 22.575 30.341C22.575 30.7504 22.6094 37.266 22.6094 37.266V37.5004ZM17.9782 36.9973L22.1375 37.0285C22.1313 35.8535 22.1032 30.7004 22.1032 30.3379C22.1032 30.2379 22.0875 29.3535 21.5032 28.7879C21.1469 28.441 20.6344 28.2754 19.9938 28.2941C18.2532 28.3441 18.0032 29.7473 17.9782 30.3504C17.9688 30.5629 17.975 34.6629 17.9782 36.9973Z" fill="#AC5832"/>
<path d="M22 32.6878C21.7281 32.6972 21.7281 32.9566 21.7281 33.4191C21.7281 33.8816 21.7187 34.1566 22.0187 34.1628C22.3281 34.1722 22.2969 33.8378 22.2844 33.3909C22.2781 33.0378 22.3375 32.6753 22 32.6878Z" fill="#F5BF0A"/>
<path d="M9.3219 30.1279L9.32502 33.4186L10.2344 36.0217H10.9063L11.8156 33.1967L11.8438 30.1279H9.3219Z" fill="#E4BBAB"/>
<path d="M9.32502 33.3379C9.32502 33.3379 9.82815 33.6066 10.0188 34.3316C10.2094 35.0566 10.2344 36.0254 10.2344 36.0254C10.2344 36.0254 9.71565 36.0348 9.56252 36.0254C9.3469 36.0129 9.35315 35.8004 9.33752 35.6348C9.3219 35.4691 9.32502 33.3379 9.32502 33.3379ZM11.8156 33.1973C11.8156 33.1973 11.3438 33.3691 11.1031 34.2598C10.8938 35.0316 10.9063 36.0223 10.9063 36.0223H11.6344C11.7875 36.0223 11.8438 35.7973 11.8438 35.6598C11.8438 35.5191 11.8156 33.1973 11.8156 33.1973Z" fill="#6DA5B0"/>
<path d="M11.8281 31.584C11.8281 31.584 11.2813 32.0684 10.5594 32.0684C9.7594 32.0684 9.3219 31.5215 9.3219 31.5215V32.634C9.3219 32.634 9.68752 32.709 10.0906 33.0527C10.3625 33.2871 10.5406 33.759 10.5406 33.759C10.5406 33.759 10.65 33.334 11.0094 32.9902C11.4219 32.5965 11.8156 32.5309 11.8156 32.5309L11.8281 31.584Z" fill="#FCCB7E"/>
<path d="M9.3125 30.0721C9.29687 30.5409 9.57812 31.3815 10.6094 31.3846C11.5281 31.3877 11.8406 30.6784 11.8406 30.1002C11.8406 29.5221 11.5187 28.8065 10.55 28.794C9.79062 28.7877 9.33437 29.4065 9.3125 30.0721Z" fill="#9F7CDC"/>
<path d="M10.5813 29.553C10.2781 29.5593 10.0625 29.7343 10.0344 30.0561C10.0063 30.378 10.2719 30.6405 10.5969 30.6405C10.9219 30.6405 11.1594 30.3686 11.1375 30.0499C11.1219 29.7686 10.8938 29.5436 10.5813 29.553Z" fill="#D05E53"/>
<path d="M28.1813 30.1566L28.2 33.3504L29.1188 35.9441H29.7813L30.7094 33.0941L30.7 30.0566L28.1813 30.1566Z" fill="#E4BBAB"/>
<path d="M29.7468 35.9437C29.7468 35.9437 29.7718 34.7281 29.9375 34.2812C30.1656 33.6656 30.7125 33.0938 30.7125 33.0938V35.5406C30.7125 35.6938 30.6968 35.9312 30.5625 35.9375C30.375 35.95 29.7468 35.9437 29.7468 35.9437ZM28.2 33.35C28.2 33.35 28.6625 33.5375 28.9125 34.2031C29.1656 34.8812 29.1218 35.9406 29.1218 35.9406C29.1218 35.9406 28.5437 35.9281 28.4281 35.925C28.1875 35.9125 28.1843 35.7344 28.1937 35.4312C28.1968 35.1594 28.2 33.35 28.2 33.35Z" fill="#6DA5B0"/>
<path d="M28.1906 31.459L28.2 32.484C28.2 32.484 28.675 32.6996 28.9219 32.9371C29.1875 33.1902 29.4281 33.659 29.4281 33.659C29.4281 33.659 29.6969 33.0934 29.9469 32.8715C30.3375 32.5215 30.7062 32.3965 30.7062 32.3965L30.7031 31.4809C30.7031 31.4809 30.1937 32.0434 29.4062 32.0215C28.6187 31.9996 28.1906 31.459 28.1906 31.459Z" fill="#FCCB7E"/>
<path d="M29.4407 28.7473C28.875 28.7348 28.2094 29.1536 28.1844 30.0661C28.1594 30.9286 28.8875 31.3348 29.4782 31.3098C30.0688 31.2848 30.6719 30.9411 30.7032 30.0536C30.7313 29.0942 29.9813 28.7598 29.4407 28.7473Z" fill="#9F7CDC"/>
<path d="M29.45 29.4873C29.1531 29.4873 28.9062 29.7092 28.9187 30.0654C28.9312 30.4217 29.1687 30.6061 29.4656 30.6061C29.7844 30.6061 30.0125 30.4342 30.0156 30.0061C30.0219 29.6842 29.8125 29.4873 29.45 29.4873Z" fill="#D05E53"/>
<path d="M19.8937 17.2872C17.6125 17.2747 16.4812 19.084 16.5781 20.8153C16.6844 22.7059 17.9687 24.0559 19.9687 24.0309C22.0781 24.0028 23.2531 22.4903 23.2375 20.559C23.225 18.6403 21.8562 17.2965 19.8937 17.2872Z" fill="#63697F"/>
<path d="M19.8219 17.7472C18.2281 17.7878 17.0125 19.0441 16.9969 20.7347C16.9844 22.3847 18.2937 23.5597 19.875 23.5722C21.3875 23.5847 22.725 22.5597 22.7937 20.7347C22.8656 18.7941 21.4 17.7066 19.8219 17.7472Z" fill="#6DA5B0"/>
<path d="M19.9531 19.2218C19.0687 19.1906 18.4812 19.8156 18.4875 20.6531C18.4937 21.3749 18.9 22.1437 19.925 22.1468C20.8812 22.1531 21.3937 21.4656 21.4062 20.7375C21.4125 20.0843 21.1187 19.2625 19.9531 19.2218Z" fill="#E4BBAB"/>
<path d="M21.5938 19.7559L22.0938 19.4621C21.8629 19.0268 21.495 18.6797 21.0469 18.4746L20.8219 19.0465C21.1406 19.1965 21.4125 19.4371 21.5938 19.7559Z" fill="#9F7CDC"/>
<path d="M21.7625 21.1723L22.275 21.3723C22.3281 21.1754 22.3625 20.966 22.3688 20.741C22.3781 20.491 22.3531 20.2566 22.3031 20.041L21.7625 20.1879C21.8031 20.3598 21.825 20.5441 21.8188 20.7473C21.8156 20.9004 21.7938 21.041 21.7625 21.1723Z" fill="#FCCB7E"/>
<path d="M21.5593 21.666C21.4031 21.9223 21.1812 22.1191 20.9281 22.2598L21.2187 22.7754C21.5562 22.5785 21.8437 22.3004 22.0469 21.941L21.5593 21.666Z" fill="#9F7CDC"/>
<path d="M20.5094 22.4248C20.325 22.4748 20.1281 22.5029 19.9281 22.4998C19.7875 22.4998 19.65 22.4811 19.5188 22.4529L19.3688 23.0654C19.8096 23.1575 20.2666 23.136 20.6969 23.0029L20.5094 22.4248Z" fill="#FCCB7E"/>
<path d="M18.3937 21.6973L17.8469 22.0691C18.0871 22.4211 18.4188 22.701 18.8062 22.8785L19.1125 22.3129C18.8218 22.1762 18.5734 21.9635 18.3937 21.6973Z" fill="#9F7CDC"/>
<path d="M18.1531 20.1996L17.5375 20.0684C17.4813 20.2809 17.45 20.5059 17.4469 20.7402C17.4438 21.0465 17.5031 21.3309 17.6 21.5902L18.1969 21.309C18.1344 21.134 18.0969 20.9496 18.0875 20.7496C18.0844 20.5559 18.1063 20.3715 18.1531 20.1996Z" fill="#FCCB7E"/>
<path d="M18.6594 18.5684C18.2813 18.7902 17.9719 19.1059 17.7594 19.4996L18.3094 19.8121C18.4688 19.5184 18.7094 19.2809 19 19.1184L18.6594 18.5684Z" fill="#9F7CDC"/>
<path d="M19.8469 18.2344C19.6156 18.2406 19.3938 18.2781 19.1844 18.3406L19.4 18.9469C19.5658 18.8989 19.7369 18.8716 19.9094 18.8656C20.0688 18.8625 20.225 18.8781 20.3781 18.9063L20.5 18.2969C20.2857 18.2494 20.0663 18.2285 19.8469 18.2344Z" fill="#FCCB7E"/>
</svg>
