<svg width="40" height="40" viewBox="0 0 40 40" fill="none" xmlns="http://www.w3.org/2000/svg">
<path d="M30.35 18.5465C31.0438 17.9746 35.05 15.4965 37.2438 13.409C38.9563 11.7778 39.6188 7.5184 36.9844 5.44653C33.5594 2.7559 30.2719 5.5809 30.2719 5.5809C30.2719 5.5809 29.9844 3.98403 27.9844 3.04653C25.4656 1.86528 22.275 1.42465 19.3406 1.46215C16.4969 1.49653 13.8781 1.84028 11.5531 2.9809C9.47188 4.00278 9.34688 5.45903 9.34688 5.45903C9.34688 5.45903 6.61563 2.84965 3.26876 4.9684C-0.0749942 7.09028 0.884381 11.3403 2.49376 13.1247C4.59063 15.4497 7.10938 16.634 8.25313 17.4903C9.39376 18.3465 10.4875 19.1621 10.4875 19.8965C10.4875 20.6309 10.1625 20.7934 10.0375 20.7528C9.91563 20.7122 9.70001 19.9965 9.14063 20.3028C8.37813 20.7247 8.60938 22.4247 10.2 22.5872C11.7406 22.7465 12.0344 21.1184 12.0344 21.1184L12.2781 19.5278L14.8063 21.2809L17.5781 23.5653L17.4969 25.5215C17.4969 25.5215 17.375 27.0309 16.6406 28.3372C15.9063 29.6434 14.725 30.9465 14.725 30.9465L14.6875 32.1278L24.9656 31.884L24.6406 30.7434C24.6406 30.7434 23.3156 29.2872 22.5188 27.7247C21.95 26.6059 21.8594 25.4778 21.8594 25.4778L21.8344 22.6715L27.1688 19.4028C27.1688 19.4028 27.7406 19.8528 27.6594 20.0153C27.5781 20.1778 27.5594 21.8434 28.8406 22.4622C30.1063 23.0747 31.125 22.2997 31.0031 21.2372C30.8813 20.1778 30.2281 20.5434 30.025 20.7059C29.8219 20.8684 29.3719 20.909 29.25 20.2965C29.125 19.6903 29.6563 19.1184 30.35 18.5465ZM4.09063 12.7778L2.86876 9.05903L4.34688 7.12465L6.00313 6.64028C6.00313 6.64028 8.11876 8.2184 8.19376 8.34653C8.26876 8.47465 9.54376 11.0965 9.54376 11.0965L11.225 17.184L4.09063 12.7778ZM28.1094 17.6684C28.1344 17.5403 29.6875 11.1465 29.6875 11.1465C29.6875 11.0715 30.7813 10.5622 30.7813 10.459C30.7813 10.3559 32.7688 7.12153 32.7688 7.12153L36.0813 7.24965L36.7688 10.534L35.1125 13.259C35.1156 13.2622 28.0844 17.7934 28.1094 17.6684Z" fill="#FEC417"/>
<path d="M37.475 9.5748C37.2312 6.6623 34.35 5.96543 33.1656 6.38731C31.9812 6.80918 31.2125 7.5998 30.95 8.7248C30.7375 9.63418 30.525 10.2404 30.2812 10.3342C30.0125 10.4342 29.7656 10.3936 29.7656 10.3936C29.7656 10.3936 29.7219 8.4248 29.7344 7.63105C29.7656 5.99355 30.2656 5.5748 30.2656 5.5748C30.2656 5.5748 30.1594 5.02168 29.9469 4.71543C29.7344 4.4123 29.3406 4.01855 29.3406 4.01855C29.3406 4.01855 29.4312 4.80605 29.0375 4.99043C28.6437 5.1748 28.2187 4.8998 28.2187 4.8998L28.6125 6.5373C28.6125 6.5373 27.975 14.6998 27.9156 14.8811C27.8562 15.0623 25.4594 19.2186 25.4594 19.2186C25.4594 19.2186 24.0625 20.5248 23.3969 20.8279C22.7281 21.1311 22.1531 21.9217 19.575 21.9498C16.9969 21.9811 14.7812 19.9467 14.7812 19.9467L12.5656 17.8217L10.9281 12.9967L10.6844 8.08106L10.7875 6.29355L10.8594 5.54668L10.7437 5.16856C10.7437 5.16856 10.5312 5.38105 10.1375 5.29043C9.74375 5.1998 9.59062 4.68418 9.59062 4.68418C9.59062 4.68418 9.4375 4.92793 9.40937 5.0498C9.37812 5.17168 9.34687 5.45293 9.34687 5.45293C9.34687 5.45293 9.77187 5.8998 9.8625 6.5373C9.95312 7.1748 9.83125 9.81543 9.37812 9.75293C8.92187 9.69355 9.07187 7.47793 7.34375 6.62793C5.84687 5.89043 3.6125 6.1123 2.7 7.9623C1.79062 9.8123 2.45625 11.9967 5.30937 14.0311C8.1625 16.0654 11.2 17.7748 11.6812 19.4061C12.2562 21.3467 10.9531 22.4998 10.9531 22.4998C10.9531 22.4998 11.9 22.3686 12.3656 21.3529C12.5156 21.0248 12.5719 20.5467 12.5937 20.2623C13.6719 21.6686 15.1062 22.8592 17.0062 23.4342C17.725 23.6811 18.5344 23.8061 19.6594 23.8061C19.8219 23.8061 19.9812 23.7998 20.1406 23.7936C21.4562 23.7467 22.5812 23.4998 23.6719 22.9592C25.1437 22.2779 26.2844 21.2373 27.1656 20.0561C27.1406 20.3373 27.3125 21.0373 27.6406 21.5904C28.2156 22.5623 29.1875 22.6217 29.1875 22.6217C29.1875 22.6217 27.8531 21.8342 28.125 19.9529C28.3969 18.0717 29.6406 17.4029 31.5219 16.1904C33.4094 14.9748 37.7156 12.4873 37.475 9.5748ZM6.64687 13.7029C5.8 13.1061 4.31562 12.3092 3.70312 11.0936C2.8875 9.47168 3.55 7.51231 5.1 7.27168C8.31875 6.76543 8.37812 10.7623 8.59062 11.2467C8.80312 11.7311 9.40937 11.7623 9.40937 11.7623C9.40937 11.7623 9.43125 12.0311 9.51875 12.5498C9.52187 12.5654 9.525 12.5779 9.525 12.5936L9.53437 12.6404C9.59375 12.9936 9.67812 13.4342 9.79687 13.9373L9.80625 13.9748C9.87187 14.2592 9.94062 14.5279 10.0125 14.7748C10.1562 15.2936 10.3312 15.8529 10.5469 16.4279C10.2344 16.2154 8.44375 14.9748 6.64687 13.7029ZM35.8062 11.4561C35.1344 12.5436 33.775 13.3529 32.7719 14.0342C31.4781 14.9123 29.5531 16.2311 29.0094 16.5998C29.1344 16.2686 29.2437 15.9404 29.3437 15.6186C29.5062 15.1936 29.6781 14.6748 29.7969 14.1154C30.1094 12.6467 30.1625 11.3623 30.1625 11.3623C30.1625 11.3623 30.8 11.5436 31.1937 11.1186C31.5875 10.6936 31.7344 9.3748 32.1031 8.75293C32.6781 7.78105 33.8312 6.78105 35.5625 7.99355C36.5625 8.69668 36.6 10.1686 35.8062 11.4561ZM18.9125 24.7842L20.6781 24.7623C20.6781 24.7623 20.725 26.6904 21.0031 28.1279C21.2812 29.5686 21.6531 31.1686 21.6531 31.1686C21.6531 31.1686 18.0562 32.3748 18.0781 31.0748C18.1 29.7748 18.6344 27.2436 18.6344 27.2436C18.6344 27.2436 18.9594 24.2279 18.9125 24.7842Z" fill="#FFA828"/>
<path d="M15.95 4.747C15.95 4.747 17.9156 4.52512 19.7437 4.55325C21.5719 4.58137 23.4531 4.94075 23.4531 4.94075C23.4531 4.94075 23.3437 11.0595 23.0094 14.4939C22.6781 17.9282 21.3781 20.5001 21.0312 21.2282C20.6969 21.9345 20.4531 22.3126 20.4531 22.3126L18.6906 22.1064L15.6437 15.9876L15.95 4.747Z" fill="#FFA828"/>
<path d="M13.5969 5.66231C13.5969 5.66231 14.15 5.38418 14.9531 5.08105C15.6812 4.80605 16.3375 4.72168 16.3375 4.72168C16.3375 4.72168 16.3562 8.77793 16.4219 11.6717C16.4781 14.1373 17.3906 18.1779 17.8344 19.2592C18.2781 20.3404 19.0781 21.9904 19.0781 21.9904C19.0781 21.9904 17.4687 21.7592 16.4781 20.5029C15.9562 19.8404 13.5156 14.7154 13.4312 11.3373C13.3469 7.95918 13.6781 5.57793 13.5969 5.66231Z" fill="#FFEFAB"/>
<path d="M12.6813 6.13164C12.625 6.29727 12.1844 9.78789 12.875 13.0254C13.5656 16.2629 14.5875 18.4785 15.2625 19.3566C15.8625 20.1348 16.2531 20.5035 16.475 20.5035C16.6969 20.5035 15.5625 17.8191 15.0344 15.7129C14.5094 13.6098 14.2312 11.0879 14.175 9.84414C14.1187 8.59727 14.0656 5.38477 14.0656 5.38477C14.0656 5.38477 13.4562 5.66289 13.3187 5.74414C13.1812 5.82852 12.6813 6.13164 12.6813 6.13164Z" fill="#FFFCFD"/>
<path d="M16.6688 30.9406C16.6688 30.9406 17.8594 29.0031 18.1094 27.5344C18.3594 26.0656 18.4969 24.7656 18.4969 24.7656L19.2344 24.7969C19.2344 24.7969 19.1625 26.925 19.0781 28.3656C18.9938 29.8062 18.7469 31.2188 18.7469 31.2188L16.6688 30.9406Z" fill="#FFEFAB"/>
<path d="M17.5844 23.5659C17.5844 23.5659 18.1375 23.0253 19.6594 23.0253C21.1812 23.0253 21.8344 23.6097 21.8344 23.6097L21.875 25.4878C21.875 25.4878 20.8625 25.1722 19.6312 25.1566C18.6062 25.1441 17.5031 25.5253 17.5031 25.5253L17.5844 23.5659ZM10.9375 4.91281C11.1937 4.67531 13.65 2.83156 19.4656 2.78156C25.7219 2.72531 28.0687 4.53781 28.2156 4.63781C28.3812 4.74718 28.575 5.24718 28.4937 5.46906C28.4094 5.69093 28.2437 5.77218 27.775 5.57843C27.3031 5.38468 24.9781 3.68781 19.3844 3.86281C14.0125 4.02843 11.7344 5.66281 11.4937 5.80031C11.3 5.90968 10.9406 5.93781 10.775 5.71593C10.6062 5.49718 10.7719 5.06906 10.9375 4.91281ZM28.4937 6.21593C27.775 6.27218 28.2719 12.0597 26.75 15.6847C25.1187 19.5628 23.0375 20.6691 23.1219 20.8909C23.2062 21.1128 25.2437 20.4972 26.5281 18.6753C27.7187 16.9878 28.4375 15.4909 28.7719 13.4972C29.1 11.5034 29.2937 6.15343 28.4937 6.21593ZM10.7844 6.87843C10.6031 6.86906 10.7875 9.75656 10.4937 11.0253C10.3812 11.5128 10.1062 11.6128 10.0781 11.7222C10.05 11.8316 10.6812 15.5472 11.7406 17.1784C12.7656 18.7566 14.7875 20.7222 15.1187 20.3909C15.45 20.0597 13.65 18.9503 12.4344 16.5409C11.7344 15.1597 11.0219 13.0784 10.9937 10.6972C10.975 9.12218 11.1719 6.90031 10.7844 6.87843Z" fill="#D1701C"/>
<path d="M27.1156 35.2215L27.1125 30.7559H12.7781C12.8219 30.7559 12.7875 34.3871 12.7813 35.2371H10.7438V38.4715H28.9469V35.2371L27.1156 35.2215Z" fill="#865C50"/>
<path d="M17.3719 33.1035C17.0187 33.0879 16.6125 33.1597 16.5969 33.5972C16.5812 34.0347 16.5812 35.3004 16.5812 35.541C16.5812 35.7816 16.7781 35.991 17.2719 36.0066C17.7656 36.0222 22.4 36.0066 22.725 36.0066C23.05 36.0066 23.2187 35.7254 23.2312 35.4441C23.2469 35.1629 23.2156 33.9785 23.2156 33.6566C23.2156 33.1222 22.7375 33.1222 22.4125 33.1222C22.0625 33.116 17.3719 33.1035 17.3719 33.1035Z" fill="#FCC219"/>
</svg>
