<svg width="23" height="23" viewBox="0 0 23 23" fill="none" xmlns="http://www.w3.org/2000/svg">
<g clip-path="url(#clip0_869_11812)">
<path d="M22.5539 19.6513L18.201 15.2984C18.0046 15.102 17.7382 14.9928 17.4588 14.9928H16.7472C17.9522 13.4516 18.6682 11.5132 18.6682 9.4044C18.6682 4.38793 14.6035 0.323242 9.58702 0.323242C4.57055 0.323242 0.505859 4.38793 0.505859 9.4044C0.505859 14.4209 4.57055 18.4856 9.58702 18.4856C11.6958 18.4856 13.6342 17.7695 15.1754 16.5645V17.2762C15.1754 17.5556 15.2846 17.8219 15.481 18.0184L19.8339 22.3713C20.2443 22.7817 20.9079 22.7817 21.3139 22.3713L22.5495 21.1357C22.9599 20.7253 22.9599 20.0617 22.5539 19.6513ZM9.58702 14.9928C6.5003 14.9928 3.99861 12.4955 3.99861 9.4044C3.99861 6.31768 6.49593 3.816 9.58702 3.816C12.6737 3.816 15.1754 6.31332 15.1754 9.4044C15.1754 12.4911 12.6781 14.9928 9.58702 14.9928Z" fill="#FFD86E"/>
</g>
<defs>
<clipPath id="clip0_869_11812">
<rect width="22.3536" height="22.3536" fill="white" transform="translate(0.505859 0.323242)"/>
</clipPath>
</defs>
</svg>
