<svg width="38" height="38" viewBox="0 0 38 38" fill="none" xmlns="http://www.w3.org/2000/svg">
<g clip-path="url(#clip0_618_15758)">
<path d="M4.71082 24.4225L23.6479 5.49023L32.5054 14.3502L13.5678 33.2825L4.71082 24.4225Z" fill="#FFCE31"/>
<path d="M36.3968 2.73125L35.2687 1.60312C33.1312 -0.534375 29.6875 -0.534375 27.4906 1.60312L23.6312 5.4625L32.5375 14.3687L36.3968 10.5094C38.5343 8.37187 38.5343 4.86875 36.3968 2.73125Z" fill="#ED4C5C"/>
<path d="M21.2455 7.90236L23.6799 5.4668L32.5387 14.3255L30.1043 16.7605L21.2455 7.90236Z" fill="#93A2AA"/>
<path d="M22.1694 8.82657L24.6038 6.3916L31.5738 13.361L29.1383 15.7954L22.1694 8.82657Z" fill="#C7D3D8"/>
<path d="M4.69061 24.4033L0.831238 34.4971L3.50311 37.1689L13.5969 33.3096L4.69061 24.4033Z" fill="#FED0AC"/>
<path d="M0.178153 36.2779C-0.356222 37.7029 0.356278 38.3561 1.78128 37.8217L6.65003 35.9811L2.07815 31.4092L0.178153 36.2779Z" fill="#333333"/>
<path d="M4.68469 24.4481L21.2266 7.90625L24.1656 10.8453L7.62375 27.3872L4.68469 24.4481Z" fill="#FFDF85"/>
<path d="M10.6305 30.3651L27.1724 13.8232L30.1114 16.7623L13.5696 33.3042L10.6305 30.3651Z" fill="#FF8736"/>
</g>
<defs>
<clipPath id="clip0_618_15758">
<rect width="38" height="38" fill="white"/>
</clipPath>
</defs>
</svg>
