<svg width="62" height="39" viewBox="0 0 62 39" fill="none" xmlns="http://www.w3.org/2000/svg">
<g clip-path="url(#clip0_618_15769)">
<path d="M24.9996 6.47802L12.4231 5.03421C12.2803 5.01805 12.1364 5.05374 12.0176 5.13477C11.8989 5.21581 11.8132 5.3368 11.7762 5.47571L8.53731 17.7155C7.61052 17.3493 6.39265 17.6839 5.60826 18.1658C4.13349 19.072 3.48645 20.7043 4.16708 21.812C4.84592 22.9193 6.59518 23.0807 8.06995 22.1745C8.70083 21.7864 9.38975 21.041 9.68099 20.2307L9.69355 20.2341L12.5154 9.57022L22.6332 10.7322L20.3523 19.3516C19.4231 18.9655 18.1877 19.3012 17.3937 19.7902C15.9189 20.6964 15.2737 22.3291 15.9525 23.4364C16.6332 24.5442 18.3806 24.7051 19.8554 23.7989C20.5067 23.3989 21.2227 22.6165 21.4973 21.7749L21.5009 21.7759L25.3957 7.05722C25.4683 6.78259 25.2811 6.51025 24.9996 6.47802Z" fill="#546E7A"/>
</g>
<path d="M52.0069 9.53158C46.2806 6.51096 41.0681 8.66346 39.1894 11.6053C38.5744 12.5672 38.1394 14.3166 38.1562 15.7041C38.19 18.5597 39.7706 21.7416 43.1812 24.9516C47.3775 28.9003 51.66 28.5553 53.0212 28.2235C54.735 27.8053 55.8844 27.4491 55.7081 25.8516C55.6856 25.6416 55.5056 25.261 55.2337 25.0941C54.3619 24.5653 52.5412 24.2897 51.6844 23.0166C50.4394 21.1622 51.9881 21.0685 53.4712 21.8616C55.0594 22.711 55.9669 23.2416 57.5606 23.0953C58.7287 22.9885 60.4275 22.2835 60.6581 20.3128C60.8644 18.5297 58.2619 12.8316 52.0069 9.53158ZM54.345 19.2216C53.9062 19.8891 52.8225 19.6603 52.1119 19.0303C51.4012 18.4003 51.3094 17.3503 51.7706 16.9378C52.2394 16.5197 53.1206 16.6153 53.8312 17.2453C54.54 17.8772 54.6881 18.6966 54.345 19.2216Z" fill="#AC5810"/>
<path d="M52.2581 8.8515C46.5319 5.83088 41.3063 8.16713 39.4275 11.109C37.5469 14.0528 38.3644 19.5034 43.4306 24.2715C47.6269 28.2203 51.9094 27.8753 53.2706 27.5434C54.9844 27.1253 56.1938 26.3096 55.44 25.269C54.9206 24.5509 53.0588 24.009 51.9356 22.3365C50.6906 20.4821 52.2394 20.3884 53.7225 21.1815C55.3106 22.0309 56.2181 22.5615 57.8119 22.4153C58.98 22.3084 60.7462 21.4046 60.6937 19.5784C60.6394 17.784 58.5131 12.1534 52.2581 8.8515ZM54.8944 19.1696C54.36 19.7471 53.2219 19.5896 52.3519 18.8209C51.4838 18.0503 51.2119 16.959 51.7463 16.3834C52.2806 15.8059 53.4188 15.9634 54.2888 16.7321C55.1588 17.5009 55.4287 18.594 54.8944 19.1696Z" fill="#F2A259"/>
<path d="M46.4288 21.7825C46.6444 21.2313 48.1781 20.6275 49.5881 21.6307C49.9838 21.9119 50.4788 22.6282 50.4281 23.5282C50.2631 26.4682 45.4388 24.3194 46.4288 21.7825Z" fill="#EEEEEE"/>
<path d="M41.9494 16.7978C42.4425 16.0103 43.6406 15.9203 44.6888 16.6009C45.6225 17.2065 46.4025 18.6972 45.2513 19.6722C44.6344 20.1953 43.5675 19.8709 42.9094 19.3665C42.1106 18.7572 41.4188 17.6453 41.9494 16.7978Z" fill="#2686C6"/>
<path d="M48.3132 9.92586C48.465 9.30148 49.5244 9.19461 50.2744 9.47398C51.57 9.95773 52.1569 11.2402 51.6788 11.9546C50.9794 12.999 49.455 12.6409 48.8775 12.0427C47.8969 11.0302 48.1857 10.449 48.3132 9.92586Z" fill="#FFEE58"/>
<path d="M55.8206 12.9815C56.8594 13.454 56.9944 14.2021 56.7956 14.7477C56.6719 15.0852 56.4187 15.5483 55.9012 15.5896C55.0256 15.6608 54.9037 14.9371 54.2794 14.7383C53.7544 14.5715 53.5406 13.8533 53.7469 13.3715C53.9381 12.9271 54.4969 12.3777 55.8206 12.9815Z" fill="#7CB342"/>
<path d="M50.0569 24.0892C49.7981 24.3236 48.9 24.6123 47.76 23.8998C47.3737 23.658 47.0044 23.3073 46.7962 22.7823C46.6331 22.3698 46.6687 21.9723 46.7419 21.7961C46.9519 21.288 47.2725 21.1942 47.2725 21.1942C46.95 21.1717 46.3406 21.5992 46.2394 22.1598C46.2075 22.3361 45.9806 23.4386 47.4412 24.438C48.6994 25.3005 50.5594 25.2198 50.4375 23.4836C50.3812 23.6973 50.2219 23.9411 50.0569 24.0892Z" fill="#B0B0B0"/>
<path d="M45.7988 18.2313C45.7631 18.9007 44.9794 19.2532 44.5425 19.255C43.3069 19.2569 42.1969 18.4807 42.12 17.0988C42.1069 16.8513 42.2288 16.4932 42.2288 16.4932C42.0656 16.5625 41.835 16.915 41.7863 17.1138C41.4975 18.3063 42.6994 19.6957 43.965 19.9769C44.6063 20.1194 45.4144 19.9 45.7088 19.3263C45.9188 18.9175 45.8775 18.5669 45.7988 18.2313Z" fill="#01579B"/>
<path d="M50.1225 12.0446C49.2825 11.949 48.8175 11.3996 48.6956 11.274C48.3619 10.9252 48.1556 10.5859 48.2756 10.0834C48.3131 9.92211 48.405 9.71586 48.5175 9.59961C48.3806 9.64461 48.1594 9.93898 48.09 10.0984C48.0187 10.2577 47.76 10.8559 48.315 11.5927C48.6581 12.0502 49.2562 12.5659 50.1412 12.6896C50.7694 12.7777 51.2194 12.5527 51.5944 12.1871C51.8494 11.9377 51.9619 11.3752 51.81 11.0846C51.8344 11.2965 51.4462 12.1965 50.1225 12.0446Z" fill="#DF7F14"/>
<path d="M57.0319 14.3181C56.955 14.035 56.7356 13.7406 56.7131 13.7256C56.8087 13.9094 56.9981 14.4606 56.6006 14.9969C56.4 15.2669 55.7962 15.5987 55.0837 15.0212C54.8737 14.8506 54.705 14.6819 54.3262 14.5431C53.3644 14.1887 53.7844 13.21 54.1181 12.9062C53.8556 13.0431 53.6175 13.2888 53.5181 13.6638C53.3794 14.1869 53.7225 14.7344 54.2437 14.9969C54.8362 15.295 55.0275 15.8706 55.8394 15.8706C55.8806 15.8706 55.9237 15.8687 55.9706 15.865C56.5181 15.8181 56.7487 15.6062 56.9156 15.3475C57.12 15.025 57.1256 14.6594 57.0319 14.3181Z" fill="#558B2F"/>
<path d="M42.3412 10.7453C42.7687 10.3234 43.5131 9.87716 44.6025 10.4453C45.2587 10.7865 46.0218 11.1878 45.6768 12.5753C45.4631 13.4359 44.2106 13.8915 43.1643 12.9334C42.75 12.5547 41.175 11.8965 42.3412 10.7453Z" fill="#F44336"/>
<path d="M45.9263 12.389C45.9394 12.0609 45.7707 11.6615 45.7125 11.5265C45.7219 11.7234 45.8925 12.2203 45.1107 12.8784C44.8388 13.1071 44.3457 13.2815 43.8075 13.0696C43.5319 12.9609 43.1363 12.5053 42.8532 12.3909C41.8013 11.9671 42.255 10.8403 42.4032 10.6865C42.165 10.8534 41.9625 11.1196 41.8875 11.5078C41.79 12.0159 41.88 12.4959 42.5775 13.0453C44.5575 14.6071 45.165 13.6659 45.3807 13.4259C45.6525 13.1334 45.9113 12.7509 45.9263 12.389Z" fill="#C62828"/>
<path d="M49.8262 9.539C49.5506 9.40962 48.7631 9.44712 48.6112 10.1034C48.5194 10.4971 48.8081 10.8965 49.08 10.8496C49.3894 10.7971 49.2244 10.3152 49.41 10.1784C49.6931 9.97212 50.2125 9.72087 49.8262 9.539ZM44.0175 10.4952C43.7456 10.3152 42.8775 10.3134 42.6169 10.979C42.4594 11.3784 42.705 11.8415 42.9994 11.834C43.335 11.8265 43.1737 11.4309 43.4531 11.1796C43.8056 10.8627 44.3981 10.7465 44.0175 10.4952ZM43.8881 16.5027C43.6312 16.3396 42.87 16.2759 42.555 16.8721C42.3244 17.3109 42.6412 17.7946 42.9169 17.7815C43.23 17.7665 43.125 17.2677 43.3256 17.1552C43.6312 16.9846 44.2481 16.7315 43.8881 16.5027ZM48.2625 21.4959C47.9869 21.3665 47.1994 21.404 47.0475 22.0602C46.9556 22.454 47.2444 22.8534 47.5162 22.8065C47.8256 22.754 47.6606 22.2721 47.8462 22.1352C48.1275 21.929 48.6469 21.6777 48.2625 21.4959ZM55.3275 13.0434C55.08 12.8671 54.2981 12.764 54.0319 13.3827C53.8725 13.754 54.0844 14.1984 54.36 14.2002C54.6731 14.2021 54.5962 13.6996 54.8044 13.5984C55.1175 13.4465 55.6744 13.2909 55.3275 13.0434Z" fill="white"/>
<g clip-path="url(#clip1_618_15769)">
<path d="M23.25 29.9092L21.0938 26.9092H19.6562C18.862 26.9092 18.2188 27.5804 18.2188 28.4092V36.6592C18.2188 37.4879 18.862 38.1592 19.6562 38.1592H21.0938L23.25 35.1592H26.8438V29.9092H23.25Z" fill="#595858"/>
<path d="M20.375 26.9092H20.9141V38.1592H20.375V26.9092Z" fill="#3A3A3A"/>
<path d="M39.262 28.6811L38.3438 29.1593H35.4688V31.4093H38.3438L39.262 31.8874C39.5009 32.0111 39.7812 31.8311 39.7812 31.5518V29.0168C39.7812 28.7374 39.5009 28.5555 39.262 28.6811Z" fill="#595858"/>
<path d="M29 23.9092H34.0312V29.1592H29V23.9092Z" fill="#3F3F3F"/>
<path opacity="0.5" d="M23.1602 29.9092H23.6992V35.1592H23.1602V29.9092Z" fill="#787676"/>
<path d="M24.8223 29.9092H25.3613V35.1592H24.8223V29.9092Z" fill="#3A3A3A"/>
<path d="M26.125 27.6592C29.3006 27.6592 31.875 24.9729 31.875 21.6592C31.875 18.3455 29.3006 15.6592 26.125 15.6592C22.9494 15.6592 20.375 18.3455 20.375 21.6592C20.375 24.9729 22.9494 27.6592 26.125 27.6592Z" fill="#504F4F"/>
<path d="M35.6484 27.6592C37.8317 27.6592 39.6016 25.8124 39.6016 23.5342C39.6016 21.256 37.8317 19.4092 35.6484 19.4092C33.4652 19.4092 31.6953 21.256 31.6953 23.5342C31.6953 25.8124 33.4652 27.6592 35.6484 27.6592Z" fill="#504F4F"/>
<path d="M36.1875 37.4092H26.8438C26.0495 37.4092 25.4062 36.7379 25.4062 35.9092V29.1592C25.4062 28.3304 26.0495 27.6592 26.8438 27.6592H36.1875C36.9817 27.6592 37.625 28.3304 37.625 29.1592V35.9092C37.625 36.7379 36.9817 37.4092 36.1875 37.4092Z" fill="#504F4F"/>
<path d="M27.2031 32.5342C27.4008 32.5342 27.5625 32.7029 27.5625 32.9092C27.5625 33.1154 27.4008 33.2842 27.2031 33.2842C27.0055 33.2842 26.8438 33.1154 26.8438 32.9092C26.8438 32.7029 27.0055 32.5342 27.2031 32.5342ZM27.2031 32.1592C26.806 32.1592 26.4844 32.4948 26.4844 32.9092C26.4844 33.3236 26.806 33.6592 27.2031 33.6592C27.6002 33.6592 27.9219 33.3236 27.9219 32.9092C27.9219 32.4948 27.6002 32.1592 27.2031 32.1592ZM27.2031 34.0342C27.4008 34.0342 27.5625 34.2029 27.5625 34.4092C27.5625 34.6154 27.4008 34.7842 27.2031 34.7842C27.0055 34.7842 26.8438 34.6154 26.8438 34.4092C26.8438 34.2029 27.0055 34.0342 27.2031 34.0342ZM27.2031 33.6592C26.806 33.6592 26.4844 33.9948 26.4844 34.4092C26.4844 34.8236 26.806 35.1592 27.2031 35.1592C27.6002 35.1592 27.9219 34.8236 27.9219 34.4092C27.9219 33.9948 27.6002 33.6592 27.2031 33.6592Z" fill="#3A3A3A"/>
<path d="M29 34.9717C28.7035 34.9717 28.4609 34.7186 28.4609 34.4092V32.9092C28.4609 32.5998 28.7035 32.3467 29 32.3467H34.75C35.0465 32.3467 35.2891 32.5998 35.2891 32.9092V34.4092C35.2891 34.7186 35.0465 34.9717 34.75 34.9717H29Z" fill="#504F4F"/>
<path d="M34.75 32.6279C34.8991 32.6279 35.0195 32.7536 35.0195 32.9092V34.4092C35.0195 34.5648 34.8991 34.6904 34.75 34.6904H29C28.8509 34.6904 28.7305 34.5648 28.7305 34.4092V32.9092C28.7305 32.7536 28.8509 32.6279 29 32.6279H34.75ZM34.75 32.0654H29C28.5544 32.0654 28.1914 32.4442 28.1914 32.9092V34.4092C28.1914 34.8742 28.5544 35.2529 29 35.2529H34.75C35.1956 35.2529 35.5586 34.8742 35.5586 34.4092V32.9092C35.5586 32.4442 35.1956 32.0654 34.75 32.0654Z" fill="#3A3A3A"/>
<path d="M26.125 25.8779C28.3579 25.8779 30.168 23.9891 30.168 21.6592C30.168 19.3292 28.3579 17.4404 26.125 17.4404C23.8921 17.4404 22.082 19.3292 22.082 21.6592C22.082 23.9891 23.8921 25.8779 26.125 25.8779Z" fill="#504F4F"/>
<path d="M26.125 17.7217C28.2058 17.7217 29.8984 19.4879 29.8984 21.6592C29.8984 23.8304 28.2058 25.5967 26.125 25.5967C24.0442 25.5967 22.3516 23.8304 22.3516 21.6592C22.3516 19.4879 24.0442 17.7217 26.125 17.7217ZM26.125 17.1592C23.7441 17.1592 21.8125 19.1748 21.8125 21.6592C21.8125 24.1436 23.7441 26.1592 26.125 26.1592C28.5059 26.1592 30.4375 24.1436 30.4375 21.6592C30.4375 19.1748 28.5059 17.1592 26.125 17.1592Z" fill="#3A3A3A"/>
<path d="M35.6484 25.8779C36.8889 25.8779 37.8945 24.8286 37.8945 23.5342C37.8945 22.2398 36.8889 21.1904 35.6484 21.1904C34.408 21.1904 33.4023 22.2398 33.4023 23.5342C33.4023 24.8286 34.408 25.8779 35.6484 25.8779Z" fill="#504F4F"/>
<path d="M35.6484 21.4717C36.7391 21.4717 37.625 22.3961 37.625 23.5342C37.625 24.6723 36.7391 25.5967 35.6484 25.5967C34.5577 25.5967 33.6719 24.6723 33.6719 23.5342C33.6719 22.3961 34.5577 21.4717 35.6484 21.4717ZM35.6484 20.9092C34.2595 20.9092 33.1328 22.0848 33.1328 23.5342C33.1328 24.9836 34.2595 26.1592 35.6484 26.1592C37.0374 26.1592 38.1641 24.9836 38.1641 23.5342C38.1641 22.0848 37.0374 20.9092 35.6484 20.9092Z" fill="#3A3A3A"/>
<path d="M26.125 23.1592C26.9189 23.1592 27.5625 22.4876 27.5625 21.6592C27.5625 20.8308 26.9189 20.1592 26.125 20.1592C25.3311 20.1592 24.6875 20.8308 24.6875 21.6592C24.6875 22.4876 25.3311 23.1592 26.125 23.1592Z" fill="#636262"/>
<path d="M35.6484 25.0342C36.4423 25.0342 37.0859 24.3626 37.0859 23.5342C37.0859 22.7058 36.4423 22.0342 35.6484 22.0342C34.8545 22.0342 34.2109 22.7058 34.2109 23.5342C34.2109 24.3626 34.8545 25.0342 35.6484 25.0342Z" fill="#636262"/>
<path d="M27.2031 33.2842C27.4016 33.2842 27.5625 33.1163 27.5625 32.9092C27.5625 32.7021 27.4016 32.5342 27.2031 32.5342C27.0046 32.5342 26.8438 32.7021 26.8438 32.9092C26.8438 33.1163 27.0046 33.2842 27.2031 33.2842Z" fill="url(#paint0_linear_618_15769)"/>
<path d="M27.2031 34.7842C27.4016 34.7842 27.5625 34.6163 27.5625 34.4092C27.5625 34.2021 27.4016 34.0342 27.2031 34.0342C27.0046 34.0342 26.8438 34.2021 26.8438 34.4092C26.8438 34.6163 27.0046 34.7842 27.2031 34.7842Z" fill="url(#paint1_linear_618_15769)"/>
</g>
<defs>
<linearGradient id="paint0_linear_618_15769" x1="27.2031" y1="32.4873" x2="27.2031" y2="33.2407" gradientUnits="userSpaceOnUse">
<stop stop-color="#FF1744"/>
<stop offset="1" stop-color="#D50000"/>
</linearGradient>
<linearGradient id="paint1_linear_618_15769" x1="27.2031" y1="33.9873" x2="27.2031" y2="34.7411" gradientUnits="userSpaceOnUse">
<stop stop-color="#76FF03"/>
<stop offset="1" stop-color="#64DD17"/>
</linearGradient>
<clipPath id="clip0_618_15769">
<rect width="23.7662" height="23.7662" fill="white" transform="translate(6.57971) rotate(14.8217)"/>
</clipPath>
<clipPath id="clip1_618_15769">
<rect width="23" height="24" fill="white" transform="translate(17.5 14.9092)"/>
</clipPath>
</defs>
</svg>
