<svg width="209" height="37" viewBox="0 0 209 37" fill="none" xmlns="http://www.w3.org/2000/svg">
<path d="M38.5859 21.4102C38.1953 20.082 37.1211 19.2617 35.5781 19.2617C33.3906 19.2617 31.9062 20.9414 31.9062 23.9102C31.9062 26.8984 33.3516 28.5977 35.5977 28.5977C37.6191 28.5977 38.8203 27.4551 38.8594 25.668H35.793V23.4609H41.6914V25.2188C41.6914 28.9297 39.1523 31.1953 35.5781 31.1953C31.6133 31.1953 28.918 28.4219 28.918 23.9492C28.918 19.3594 31.7891 16.6641 35.5195 16.6641C38.7031 16.6641 41.1641 18.6172 41.5547 21.4102H38.5859ZM44.4453 31V20.3945H47.3359V31H44.4453ZM45.8906 19.0078C45.0117 19.0078 44.3086 18.3438 44.3086 17.543C44.3086 16.7227 45.0117 16.0586 45.8906 16.0586C46.75 16.0586 47.4531 16.7227 47.4531 17.543C47.4531 18.3438 46.75 19.0078 45.8906 19.0078ZM55.168 20.3945V22.5625H53.1758V27.7383C53.1758 28.5781 53.5859 28.793 54.1719 28.8125C54.4648 28.8125 54.9727 28.793 55.3242 28.7539V31.0391C55.0117 31.0977 54.5039 31.1367 53.7812 31.1367C51.6914 31.1367 50.2656 30.1992 50.2852 28.1484V22.5625H48.8203V20.3945H50.2852V17.8555H53.1758V20.3945H55.168ZM57.2773 31V16.8594H60.207V22.7188H66.3398V16.8594H69.2891V31H66.3398V25.1406H60.207V31H57.2773ZM78.4102 26.4883V20.3945H81.3008V31H78.5273V29.0859H78.4102C77.9219 30.3164 76.7891 31.1367 75.1875 31.1367C73.0586 31.1367 71.6133 29.6328 71.6133 27.1523V20.3945H74.5039V26.6445C74.5039 27.8945 75.2266 28.6953 76.3594 28.6953C77.4141 28.6953 78.4102 27.9336 78.4102 26.4883ZM83.6055 31V16.8594H86.4961V22.1719H86.5742C86.9844 21.3125 87.8242 20.2578 89.6016 20.2578C91.9453 20.2578 93.918 22.0742 93.918 25.707C93.918 29.2422 92.0234 31.1758 89.6016 31.1758C87.8633 31.1758 86.9844 30.1797 86.5742 29.3008H86.457V31H83.6055ZM86.4375 25.6875C86.4375 27.6016 87.2578 28.8711 88.6836 28.8711C90.168 28.8711 90.9492 27.5625 90.9492 25.6875C90.9492 23.832 90.168 22.5625 88.6836 22.5625C87.2383 22.5625 86.4375 23.7734 86.4375 25.6875Z" fill="black"/>
<g filter="url(#filter0_d_618_14210)">
<path d="M163.401 19.2781C163.489 20.5832 165.132 22.0115 166.445 21.9241C167.758 21.8368 167.768 20.2986 167.68 18.9935C167.592 17.6884 167.376 16.1653 166.063 16.2526C164.75 16.3399 163.313 17.973 163.401 19.2781Z" fill="#FFD86E"/>
<path d="M181.705 24.002C181.705 25.0251 181.524 25.963 181.162 26.8156C180.818 27.6493 180.313 28.3693 179.646 28.9756C178.979 29.563 178.169 30.0177 177.216 30.3398C176.263 30.662 175.186 30.823 173.986 30.823C172.785 30.823 171.708 30.662 170.755 30.3398C169.802 30.0177 168.992 29.563 168.325 28.9756C167.658 28.3693 167.143 27.6493 166.781 26.8156C166.438 25.963 166.267 25.0251 166.267 24.002V13.1451C166.476 13.1072 166.81 13.0598 167.267 13.003C167.725 12.9272 168.163 12.8893 168.582 12.8893C169.021 12.8893 169.402 12.9272 169.726 13.003C170.069 13.0598 170.355 13.1735 170.584 13.3441C170.812 13.5146 170.984 13.7514 171.098 14.0546C171.213 14.3577 171.27 14.7556 171.27 15.2483V23.9167C171.27 24.8262 171.517 25.5367 172.013 26.0483C172.528 26.5598 173.185 26.8156 173.986 26.8156C174.805 26.8156 175.463 26.5598 175.958 26.0483C176.454 25.5367 176.702 24.8262 176.702 23.9167V13.1451C176.911 13.1072 177.245 13.0598 177.702 13.003C178.16 12.9272 178.502 12.8827 179.017 12.8893C179.466 12.8951 179.837 12.9272 180.161 13.003C180.504 13.0598 180.79 13.1735 181.019 13.3441C181.247 13.5146 181.419 13.7514 181.533 14.0546C181.648 14.3577 181.705 14.7556 181.705 15.2483V24.002Z" fill="#FFD86E"/>
<path d="M157.55 26.1338C157.303 26.3423 156.979 26.5128 156.578 26.6454C156.197 26.7591 155.749 26.816 155.235 26.816C154.549 26.816 153.977 26.7307 153.519 26.5602C153.081 26.3896 152.795 26.0959 152.662 25.6791C152.128 24.0117 151.69 22.6665 151.347 21.6433C151.003 20.6012 150.737 19.6917 150.546 18.9149H150.403C150.346 20.0328 150.298 21.0559 150.26 21.9844C150.241 22.8938 150.222 23.7844 150.203 24.6559C150.203 25.5275 150.184 26.4086 150.146 27.2991C150.127 28.1896 150.089 29.1749 150.031 30.2549C149.784 30.3496 149.46 30.4254 149.059 30.4823C148.659 30.5581 148.259 30.596 147.859 30.596C147.02 30.596 146.363 30.4633 145.886 30.1981C145.429 29.9328 145.104 29.1749 145.104 28.4738C145.104 28.4738 146.522 27.8403 147.01 27.0528C147.412 26.4034 147.486 25.9208 147.486 25.158C147.486 24.3953 147.408 23.9156 147.01 23.2633C146.621 22.6248 145.58 21.9844 145.58 21.9844L146.029 14.2538C146.181 14.0075 146.515 13.7423 147.03 13.4581C147.544 13.1738 148.268 13.0317 149.202 13.0317C150.213 13.0317 151.003 13.1928 151.575 13.5149C152.147 13.8181 152.566 14.3202 152.833 15.0212C153.005 15.4759 153.186 15.997 153.376 16.5844C153.586 17.1717 153.786 17.7781 153.977 18.4033C154.186 19.0286 154.387 19.6538 154.577 20.2791C154.768 20.8854 154.939 21.4349 155.092 21.9275H155.235C155.692 20.3359 156.15 18.8012 156.607 17.3233C157.064 15.8265 157.484 14.5759 157.865 13.5717C158.151 13.4202 158.513 13.297 158.951 13.2023C159.409 13.0886 159.914 13.0317 160.466 13.0317C161.4 13.0317 162.163 13.1738 162.754 13.4581C163.344 13.7233 163.688 14.1117 163.783 14.6233C163.859 15.0023 164.012 16.3854 164.012 16.3854C164.012 16.3854 163.09 16.9979 162.734 17.5791C162.335 18.2304 162.257 18.7111 162.257 19.4738C162.257 20.2365 162.24 20.7852 162.734 21.3686C163.24 21.9658 164.583 22.1549 164.583 22.1549C164.583 22.1549 164.764 24.3149 164.841 25.3381C164.936 26.3423 165.012 27.2707 165.069 28.1233C165.127 28.957 165.165 29.6012 165.184 30.056C164.86 30.2454 164.517 30.3781 164.154 30.4538C163.811 30.5486 163.364 30.596 162.811 30.596C162.087 30.596 161.477 30.4728 160.981 30.2265C160.486 29.9802 160.219 29.497 160.181 28.777C160.066 26.7117 159.99 24.8549 159.952 23.2065C159.933 21.5581 159.895 20.1749 159.838 19.057H159.695C159.504 19.7959 159.228 20.7244 158.865 21.8423C158.503 22.9602 158.065 24.3907 157.55 26.1338Z" fill="#CFD1CC"/>
<path d="M146.533 25.158C146.533 26.4661 144.99 28.0001 143.675 28.0001C142.359 28.0001 142.245 26.4661 142.245 25.158C142.245 23.85 142.359 22.3159 143.675 22.3159C144.99 22.3159 146.533 23.85 146.533 25.158Z" fill="#002F6C"/>
<path d="M136.632 23.519C135.793 23.2347 135.031 22.9505 134.345 22.6663C133.659 22.3632 133.068 22.0032 132.572 21.5863C132.077 21.1695 131.686 20.6768 131.4 20.1084C131.133 19.5211 131 18.8105 131 17.9768C131 16.3663 131.619 15.0779 132.858 14.1116C134.116 13.1453 135.87 12.6621 138.119 12.6621C138.938 12.6621 139.701 12.719 140.406 12.8326C141.111 12.9463 141.711 13.1263 142.207 13.3726C142.722 13.6 143.122 13.9032 143.408 14.2821C143.694 14.6421 143.837 15.0684 143.837 15.5611C143.837 16.0537 143.722 16.48 143.493 16.84C143.265 17.1811 142.988 17.4747 142.664 17.7211C142.245 17.4558 141.683 17.2284 140.978 17.039C140.272 16.8305 139.5 16.7263 138.662 16.7263C137.804 16.7263 137.175 16.8495 136.775 17.0958C136.375 17.3232 136.175 17.6168 136.175 17.9768C136.175 18.2611 136.299 18.4979 136.546 18.6874C136.794 18.8579 137.166 19.019 137.661 19.1705L139.176 19.6537C140.968 20.2221 142.34 20.9516 143.293 21.8421C144.265 22.7137 144.751 23.9074 144.751 25.4232C144.751 27.0337 144.113 28.3411 142.836 29.3453C141.559 30.3305 139.682 30.8232 137.204 30.8232C136.327 30.8232 135.508 30.7474 134.745 30.5958C134.002 30.4632 133.344 30.2642 132.773 29.999C132.22 29.7147 131.781 29.3737 131.457 28.9758C131.152 28.559 131 28.0853 131 27.5547C131 27.0053 131.162 26.5411 131.486 26.1621C131.81 25.7642 132.163 25.4611 132.544 25.2526C133.077 25.6695 133.725 26.0295 134.488 26.3326C135.269 26.6358 136.117 26.7874 137.032 26.7874C137.966 26.7874 138.624 26.6453 139.005 26.3611C139.386 26.0768 139.577 25.7453 139.577 25.3663C139.577 24.9874 139.424 24.7032 139.119 24.5137C138.814 24.3053 138.386 24.1063 137.833 23.9168L136.632 23.519Z" fill="#002F6C"/>
</g>
<path d="M187.479 23.0862C186.709 23.0862 186.119 23.3212 185.709 23.7912C185.299 24.2612 185.094 24.9262 185.094 25.7862C185.094 26.6562 185.319 27.3262 185.769 27.7962C186.229 28.2662 186.844 28.5012 187.614 28.5012C188.024 28.5012 188.369 28.4462 188.649 28.3362C188.939 28.2262 189.214 28.1012 189.474 27.9612C189.644 28.1012 189.774 28.2712 189.864 28.4712C189.964 28.6612 190.014 28.8862 190.014 29.1462C190.014 29.5562 189.784 29.9062 189.324 30.1962C188.874 30.4762 188.184 30.6162 187.254 30.6162C186.584 30.6162 185.954 30.5212 185.364 30.3312C184.774 30.1412 184.259 29.8512 183.819 29.4612C183.379 29.0612 183.029 28.5612 182.769 27.9612C182.519 27.3512 182.394 26.6262 182.394 25.7862C182.394 25.0062 182.514 24.3212 182.754 23.7312C183.004 23.1312 183.339 22.6262 183.759 22.2162C184.189 21.8062 184.689 21.4962 185.259 21.2862C185.829 21.0762 186.439 20.9712 187.089 20.9712C188.009 20.9712 188.719 21.1212 189.219 21.4212C189.729 21.7212 189.984 22.1062 189.984 22.5762C189.984 22.8362 189.919 23.0612 189.789 23.2512C189.659 23.4412 189.509 23.5912 189.339 23.7012C189.079 23.5312 188.799 23.3862 188.499 23.2662C188.209 23.1462 187.869 23.0862 187.479 23.0862ZM192.763 30.3312C192.653 30.3512 192.488 30.3762 192.268 30.4062C192.058 30.4462 191.843 30.4662 191.623 30.4662C191.403 30.4662 191.203 30.4512 191.023 30.4212C190.853 30.3912 190.708 30.3312 190.588 30.2412C190.468 30.1512 190.373 30.0312 190.303 29.8812C190.243 29.7212 190.213 29.5162 190.213 29.2662V20.5662C190.323 20.5462 190.483 20.5212 190.693 20.4912C190.913 20.4512 191.133 20.4312 191.353 20.4312C191.573 20.4312 191.768 20.4462 191.938 20.4762C192.118 20.5062 192.268 20.5662 192.388 20.6562C192.508 20.7462 192.598 20.8712 192.658 21.0312C192.728 21.1812 192.763 21.3812 192.763 21.6312V30.3312ZM193.322 23.1612C193.422 23.1312 193.577 23.1012 193.787 23.0712C194.007 23.0412 194.232 23.0262 194.462 23.0262C194.682 23.0262 194.877 23.0412 195.047 23.0712C195.227 23.1012 195.377 23.1612 195.497 23.2512C195.617 23.3412 195.707 23.4662 195.767 23.6262C195.837 23.7762 195.872 23.9762 195.872 24.2262V27.4512C195.872 27.8612 195.972 28.1562 196.172 28.3362C196.372 28.5062 196.662 28.5912 197.042 28.5912C197.272 28.5912 197.457 28.5712 197.597 28.5312C197.747 28.4912 197.862 28.4512 197.942 28.4112V23.1612C198.042 23.1312 198.197 23.1012 198.407 23.0712C198.627 23.0412 198.852 23.0262 199.082 23.0262C199.302 23.0262 199.497 23.0412 199.667 23.0712C199.847 23.1012 199.997 23.1612 200.117 23.2512C200.237 23.3412 200.327 23.4662 200.387 23.6262C200.457 23.7762 200.492 23.9762 200.492 24.2262V28.7862C200.492 29.2862 200.282 29.6612 199.862 29.9112C199.512 30.1312 199.092 30.2962 198.602 30.4062C198.122 30.5262 197.597 30.5862 197.027 30.5862C196.487 30.5862 195.987 30.5262 195.527 30.4062C195.077 30.2862 194.687 30.1012 194.357 29.8512C194.027 29.6012 193.772 29.2812 193.592 28.8912C193.412 28.4912 193.322 28.0112 193.322 27.4512V23.1612ZM201.033 20.5812C201.133 20.5512 201.293 20.5212 201.513 20.4912C201.733 20.4512 201.958 20.4312 202.188 20.4312C202.408 20.4312 202.603 20.4462 202.773 20.4762C202.953 20.5062 203.103 20.5662 203.223 20.6562C203.343 20.7462 203.433 20.8712 203.493 21.0312C203.553 21.1812 203.583 21.3812 203.583 21.6312V23.1012C203.833 23.0012 204.068 22.9312 204.288 22.8912C204.518 22.8512 204.768 22.8312 205.038 22.8312C205.518 22.8312 205.973 22.9162 206.403 23.0862C206.833 23.2562 207.213 23.5062 207.543 23.8362C207.873 24.1562 208.133 24.5562 208.323 25.0362C208.513 25.5162 208.608 26.0712 208.608 26.7012C208.608 27.3512 208.508 27.9212 208.308 28.4112C208.118 28.8912 207.848 29.2912 207.498 29.6112C207.148 29.9312 206.718 30.1762 206.208 30.3462C205.708 30.5062 205.153 30.5862 204.543 30.5862C203.883 30.5862 203.323 30.5062 202.863 30.3462C202.403 30.1962 202.013 30.0062 201.693 29.7762C201.253 29.4662 201.033 29.0662 201.033 28.5762V20.5812ZM204.543 28.5762C205.003 28.5762 205.358 28.4212 205.608 28.1112C205.868 27.7912 205.998 27.3212 205.998 26.7012C205.998 26.0712 205.868 25.6012 205.608 25.2912C205.348 24.9812 204.998 24.8262 204.558 24.8262C204.358 24.8262 204.183 24.8462 204.033 24.8862C203.893 24.9262 203.738 24.9862 203.568 25.0662V28.3362C203.678 28.4062 203.808 28.4662 203.958 28.5162C204.118 28.5562 204.313 28.5762 204.543 28.5762Z" fill="black"/>
<g filter="url(#filter1_d_618_14210)">
<path d="M184.955 8.08568L184.23 7.90093L184.725 5.97808C184.791 5.72309 184.752 5.4526 184.617 5.2261C184.482 4.9996 184.262 4.83565 184.006 4.77032L182.072 4.27766L182.257 3.55659C182.34 3.23786 182.291 2.89974 182.122 2.61662C181.954 2.3335 181.679 2.12856 181.358 2.0469C181.038 1.96524 180.698 2.01353 180.413 2.18117C180.128 2.3488 179.922 2.62204 179.84 2.94077L179.654 3.66184L177.72 3.16918C177.463 3.10385 177.191 3.14249 176.963 3.2766C176.735 3.4107 176.57 3.62929 176.505 3.88428L176.034 5.71099L176.759 5.89574C177.485 6.08048 177.916 6.80514 177.73 7.52621C177.544 8.24728 176.816 8.67634 176.09 8.49159L175.365 8.30684L174.894 10.1336C174.828 10.3885 174.867 10.659 175.002 10.8855C175.137 11.112 175.357 11.276 175.613 11.3413L177.451 11.8093L177.637 11.0883C177.823 10.3672 178.552 9.93813 179.277 10.1229C180.002 10.3076 180.434 11.0323 180.248 11.7534L180.062 12.4744L181.9 12.9424C182.156 13.0078 182.428 12.9691 182.656 12.835C182.884 12.7009 183.049 12.4823 183.115 12.2274L183.61 10.3045L184.335 10.4892C184.656 10.5709 184.996 10.5226 185.281 10.355C185.566 10.1873 185.772 9.91411 185.854 9.59537C185.936 9.27664 185.888 8.93852 185.719 8.6554C185.55 8.37228 185.276 8.16734 184.955 8.08568Z" fill="#FFD86E"/>
</g>
<line x1="114" y1="13" x2="114" y2="33" stroke="black" stroke-width="2"/>
<path d="M12 14C10.6868 14 9.38642 14.2587 8.17317 14.7612C6.95991 15.2638 5.85752 16.0003 4.92893 16.9289C3.05357 18.8043 2 21.3478 2 24C2 28.42 4.87 32.17 8.84 33.5C9.34 33.58 9.5 33.27 9.5 33V31.31C6.73 31.91 6.14 29.97 6.14 29.97C5.68 28.81 5.03 28.5 5.03 28.5C4.12 27.88 5.1 27.9 5.1 27.9C6.1 27.97 6.63 28.93 6.63 28.93C7.5 30.45 8.97 30 9.54 29.76C9.63 29.11 9.89 28.67 10.17 28.42C7.95 28.17 5.62 27.31 5.62 23.5C5.62 22.39 6 21.5 6.65 20.79C6.55 20.54 6.2 19.5 6.75 18.15C6.75 18.15 7.59 17.88 9.5 19.17C10.29 18.95 11.15 18.84 12 18.84C12.85 18.84 13.71 18.95 14.5 19.17C16.41 17.88 17.25 18.15 17.25 18.15C17.8 19.5 17.45 20.54 17.35 20.79C18 21.5 18.38 22.39 18.38 23.5C18.38 27.32 16.04 28.16 13.81 28.41C14.17 28.72 14.5 29.33 14.5 30.26V33C14.5 33.27 14.66 33.59 15.17 33.5C19.14 32.16 22 28.42 22 24C22 22.6868 21.7413 21.3864 21.2388 20.1732C20.7362 18.9599 19.9997 17.8575 19.0711 16.9289C18.1425 16.0003 17.0401 15.2638 15.8268 14.7612C14.6136 14.2587 13.3132 14 12 14Z" fill="black"/>
<defs>
<filter id="filter0_d_618_14210" x="127" y="10.6621" width="58.7046" height="26.1611" filterUnits="userSpaceOnUse" color-interpolation-filters="sRGB">
<feFlood flood-opacity="0" result="BackgroundImageFix"/>
<feColorMatrix in="SourceAlpha" type="matrix" values="0 0 0 0 0 0 0 0 0 0 0 0 0 0 0 0 0 0 127 0" result="hardAlpha"/>
<feOffset dy="2"/>
<feGaussianBlur stdDeviation="2"/>
<feComposite in2="hardAlpha" operator="out"/>
<feColorMatrix type="matrix" values="0 0 0 0 0 0 0 0 0 0 0 0 0 0 0 0 0 0 0.25 0"/>
<feBlend mode="normal" in2="BackgroundImageFix" result="effect1_dropShadow_618_14210"/>
<feBlend mode="normal" in="SourceGraphic" in2="effect1_dropShadow_618_14210" result="shape"/>
</filter>
<filter id="filter1_d_618_14210" x="170.863" y="0.00830078" width="19.0303" height="18.9653" filterUnits="userSpaceOnUse" color-interpolation-filters="sRGB">
<feFlood flood-opacity="0" result="BackgroundImageFix"/>
<feColorMatrix in="SourceAlpha" type="matrix" values="0 0 0 0 0 0 0 0 0 0 0 0 0 0 0 0 0 0 127 0" result="hardAlpha"/>
<feOffset dy="2"/>
<feGaussianBlur stdDeviation="2"/>
<feComposite in2="hardAlpha" operator="out"/>
<feColorMatrix type="matrix" values="0 0 0 0 0 0 0 0 0 0 0 0 0 0 0 0 0 0 0.2 0"/>
<feBlend mode="normal" in2="BackgroundImageFix" result="effect1_dropShadow_618_14210"/>
<feBlend mode="normal" in="SourceGraphic" in2="effect1_dropShadow_618_14210" result="shape"/>
</filter>
</defs>
</svg>
