<svg width="225" height="104" viewBox="0 0 225 104" fill="none" xmlns="http://www.w3.org/2000/svg">
<g filter="url(#filter0_d_618_13829)">
<path d="M96.9958 52.8041C97.2479 56.5744 101.963 60.7004 105.731 60.4481C109.499 60.1958 109.529 55.7521 109.276 51.9818C109.024 48.2114 108.403 43.8113 104.635 44.0637C100.867 44.316 96.7436 49.0337 96.9958 52.8041Z" fill="#FFD86E"/>
<path d="M149.529 66.4505C149.529 69.4063 149.009 72.1158 147.97 74.5789C146.985 76.9873 145.535 79.0673 143.621 80.8189C141.706 82.5158 139.381 83.8294 136.646 84.76C133.911 85.6905 130.82 86.1558 127.374 86.1558C123.928 86.1558 120.837 85.6905 118.102 84.76C115.367 83.8294 113.042 82.5158 111.127 80.8189C109.213 79.0673 107.736 76.9873 106.696 74.5789C105.712 72.1158 105.219 69.4063 105.219 66.4505V35.0863C105.821 34.9768 106.778 34.84 108.091 34.6758C109.404 34.4568 110.662 34.3473 111.866 34.3473C113.124 34.3473 114.218 34.4568 115.148 34.6758C116.132 34.84 116.953 35.1684 117.609 35.661C118.266 36.1536 118.758 36.8379 119.086 37.7137C119.415 38.5894 119.579 39.7389 119.579 41.1621V66.2042C119.579 68.8316 120.29 70.8842 121.712 72.3621C123.189 73.84 125.076 74.5789 127.374 74.5789C129.726 74.5789 131.613 73.84 133.036 72.3621C134.458 70.8842 135.169 68.8316 135.169 66.2042V35.0863C135.771 34.9768 136.728 34.84 138.041 34.6758C139.354 34.4568 140.336 34.3282 141.816 34.3473C143.104 34.364 144.168 34.4568 145.098 34.6758C146.082 34.84 146.903 35.1684 147.559 35.661C148.216 36.1536 148.708 36.8379 149.036 37.7137C149.365 38.5894 149.529 39.7389 149.529 41.1621V66.4505Z" fill="#FFD86E"/>
<path d="M80.203 72.6083C79.4918 73.2104 78.5619 73.7031 77.4131 74.0862C76.319 74.4147 75.0335 74.5789 73.5565 74.5789C71.5872 74.5789 69.9461 74.3326 68.6333 73.8399C67.3751 73.3473 66.5546 72.4989 66.1716 71.2947C64.64 66.4778 63.3818 62.5915 62.3971 59.6357C61.4125 56.6252 60.6466 53.9978 60.0996 51.7536H59.6893C59.5252 54.9831 59.3885 57.9389 59.2791 60.621C59.2244 63.2483 59.1697 65.821 59.115 68.3389C59.115 70.8568 59.0603 73.402 58.9508 75.9747C58.8961 78.5473 58.7867 81.3936 58.6226 84.5136C57.9115 84.7873 56.9815 85.0062 55.8328 85.1705C54.684 85.3894 53.5353 85.4989 52.3865 85.4989C49.9796 85.4989 48.0923 85.1157 46.7247 84.3494C45.4119 83.5831 44.4802 81.3936 44.4802 79.3683C44.4802 79.3683 48.5502 77.5382 49.9505 75.263C51.1053 73.3869 51.3181 71.9928 51.3181 69.7894C51.3181 67.586 51.0916 66.2002 49.9505 64.3157C48.8335 62.471 45.8478 60.621 45.8478 60.621L47.135 38.2883C47.5726 37.5768 48.5299 36.8104 50.0069 35.9894C51.4839 35.1683 53.5626 34.7578 56.2431 34.7578C59.1423 34.7578 61.4125 35.2231 63.0536 36.1536C64.6947 37.0294 65.8981 38.4799 66.664 40.5052C67.1563 41.8189 67.676 43.3241 68.223 45.021C68.8247 46.7178 69.3991 48.4694 69.9461 50.2757C70.5479 52.082 71.1223 53.8883 71.6693 55.6947C72.2163 57.4462 72.7086 59.0336 73.1463 60.4568H73.5565C74.8694 55.8589 76.1823 51.4252 77.4952 47.1557C78.808 42.8315 80.0115 39.2189 81.1056 36.3178C81.9261 35.8799 82.9655 35.5241 84.2236 35.2504C85.5365 34.922 86.9861 34.7578 88.5725 34.7578C91.253 34.7578 93.4411 35.1683 95.1369 35.9894C96.8327 36.7557 97.8173 37.8778 98.0908 39.3557C98.3096 40.4504 98.7473 44.4462 98.7473 44.4462C98.7473 44.4462 96.1033 46.2156 95.0805 47.8946C93.9344 49.7761 93.7129 51.1649 93.7129 53.3683C93.7129 55.5717 93.662 57.1567 95.0805 58.842C96.5328 60.5674 100.388 61.1136 100.388 61.1136C100.388 61.1136 100.908 67.3536 101.127 70.3094C101.4 73.2104 101.619 75.8926 101.783 78.3557C101.947 80.7641 102.057 82.6252 102.111 83.9389C101.182 84.4862 100.197 84.8694 99.1575 85.0883C98.1729 85.362 96.8874 85.4989 95.301 85.4989C93.2223 85.4989 91.4718 85.1431 90.0495 84.4315C88.6272 83.7199 87.8614 82.3241 87.752 80.2441C87.4238 74.2778 87.2049 68.9136 87.0955 64.1515C87.0408 59.3894 86.9314 55.3936 86.7673 52.1641H86.357C85.81 54.2989 85.0168 56.981 83.9775 60.2104C82.9381 63.4399 81.6799 67.5726 80.203 72.6083Z" fill="#CFD1CC"/>
<path d="M48.583 69.7894C48.583 73.5682 44.154 77.9999 40.3775 77.9999C36.6011 77.9999 36.2748 73.5682 36.2748 69.7894C36.2748 66.0106 36.6011 61.5789 40.3775 61.5789C44.154 61.5789 48.583 66.0106 48.583 69.7894Z" fill="#002F6C"/>
<path d="M20.1647 65.0546C17.7578 64.2336 15.5697 63.4125 13.6004 62.5915C11.6311 61.7157 9.93527 60.6757 8.513 59.4715C7.09072 58.2673 5.96931 56.8441 5.14876 55.202C4.38292 53.5052 4 51.4525 4 49.0441C4 44.3915 5.77785 40.6694 9.33354 37.8778C12.9439 35.0862 17.9766 33.6904 24.4316 33.6904C26.7838 33.6904 28.9719 33.8546 30.9959 34.1831C33.0199 34.5115 34.7431 35.0315 36.1654 35.7431C37.6423 36.3999 38.7911 37.2757 39.6116 38.3704C40.4322 39.4104 40.8425 40.642 40.8425 42.0652C40.8425 43.4883 40.5142 44.7199 39.8578 45.7599C39.2014 46.7452 38.4082 47.5936 37.4782 48.3052C36.2748 47.5389 34.661 46.882 32.637 46.3346C30.613 45.7325 28.3975 45.4315 25.9906 45.4315C23.529 45.4315 21.7238 45.7873 20.575 46.4989C19.4262 47.1557 18.8519 48.0041 18.8519 49.0441C18.8519 49.8652 19.2074 50.5494 19.9186 51.0967C20.6297 51.5894 21.6964 52.0546 23.1187 52.4925L27.4676 53.8883C32.6097 55.5304 36.5483 57.6378 39.2834 60.2104C42.0733 62.7283 43.4682 66.1767 43.4682 70.5557C43.4682 75.2083 41.6357 78.9852 37.9706 81.8862C34.3055 84.7325 28.9172 86.1557 21.8058 86.1557C19.2895 86.1557 16.9373 85.9367 14.7491 85.4989C12.6157 85.1157 10.7285 84.541 9.08738 83.7746C7.50099 82.9536 6.24282 81.9683 5.31287 80.8189C4.43762 79.6146 4 78.2462 4 76.7136C4 75.1262 4.46498 73.7852 5.39493 72.6904C6.32488 71.541 7.33688 70.6652 8.43094 70.0631C9.96263 71.2673 11.8225 72.3073 14.0106 73.1831C16.2535 74.0589 18.6878 74.4967 21.3135 74.4967C23.9939 74.4967 25.8812 74.0862 26.9753 73.2652C28.0693 72.4441 28.6163 71.4862 28.6163 70.3915C28.6163 69.2967 28.1787 68.4757 27.3035 67.9283C26.4282 67.3262 25.1974 66.7515 23.611 66.2041L20.1647 65.0546Z" fill="#002F6C"/>
</g>
<path d="M161.968 70.512C160.325 70.512 159.067 71.0133 158.192 72.016C157.317 73.0187 156.88 74.4373 156.88 76.272C156.88 78.128 157.36 79.5573 158.32 80.56C159.301 81.5627 160.613 82.064 162.256 82.064C163.131 82.064 163.867 81.9467 164.464 81.712C165.083 81.4773 165.669 81.2107 166.224 80.912C166.587 81.2107 166.864 81.5733 167.056 82C167.269 82.4053 167.376 82.8853 167.376 83.44C167.376 84.3147 166.885 85.0613 165.904 85.68C164.944 86.2773 163.472 86.576 161.488 86.576C160.059 86.576 158.715 86.3733 157.456 85.968C156.197 85.5627 155.099 84.944 154.16 84.112C153.221 83.2587 152.475 82.192 151.92 80.912C151.387 79.6107 151.12 78.064 151.12 76.272C151.12 74.608 151.376 73.1467 151.888 71.888C152.421 70.608 153.136 69.5307 154.032 68.656C154.949 67.7813 156.016 67.12 157.232 66.672C158.448 66.224 159.749 66 161.136 66C163.099 66 164.613 66.32 165.68 66.96C166.768 67.6 167.312 68.4213 167.312 69.424C167.312 69.9787 167.173 70.4587 166.896 70.864C166.619 71.2693 166.299 71.5893 165.936 71.824C165.381 71.4613 164.784 71.152 164.144 70.896C163.525 70.64 162.8 70.512 161.968 70.512ZM173.241 85.968C173.007 86.0107 172.655 86.064 172.185 86.128C171.737 86.2133 171.279 86.256 170.809 86.256C170.34 86.256 169.913 86.224 169.529 86.16C169.167 86.096 168.857 85.968 168.601 85.776C168.345 85.584 168.143 85.328 167.993 85.008C167.865 84.6667 167.801 84.2293 167.801 83.696V65.136C168.036 65.0933 168.377 65.04 168.825 64.976C169.295 64.8907 169.764 64.848 170.233 64.848C170.703 64.848 171.119 64.88 171.481 64.944C171.865 65.008 172.185 65.136 172.441 65.328C172.697 65.52 172.889 65.7867 173.017 66.128C173.167 66.448 173.241 66.8747 173.241 67.408V85.968ZM174.434 70.672C174.647 70.608 174.978 70.544 175.426 70.48C175.895 70.416 176.375 70.384 176.866 70.384C177.335 70.384 177.751 70.416 178.114 70.48C178.498 70.544 178.818 70.672 179.074 70.864C179.33 71.056 179.522 71.3227 179.65 71.664C179.799 71.984 179.874 72.4107 179.874 72.944V79.824C179.874 80.6987 180.087 81.328 180.514 81.712C180.941 82.0747 181.559 82.256 182.37 82.256C182.861 82.256 183.255 82.2133 183.554 82.128C183.874 82.0427 184.119 81.9573 184.29 81.872V70.672C184.503 70.608 184.834 70.544 185.282 70.48C185.751 70.416 186.231 70.384 186.722 70.384C187.191 70.384 187.607 70.416 187.97 70.48C188.354 70.544 188.674 70.672 188.93 70.864C189.186 71.056 189.378 71.3227 189.506 71.664C189.655 71.984 189.73 72.4107 189.73 72.944V82.672C189.73 83.7387 189.282 84.5387 188.386 85.072C187.639 85.5413 186.743 85.8933 185.698 86.128C184.674 86.384 183.554 86.512 182.338 86.512C181.186 86.512 180.119 86.384 179.138 86.128C178.178 85.872 177.346 85.4773 176.642 84.944C175.938 84.4107 175.394 83.728 175.01 82.896C174.626 82.0427 174.434 81.0187 174.434 79.824V70.672ZM190.883 65.168C191.096 65.104 191.438 65.04 191.907 64.976C192.376 64.8907 192.856 64.848 193.347 64.848C193.816 64.848 194.232 64.88 194.595 64.944C194.979 65.008 195.299 65.136 195.555 65.328C195.811 65.52 196.003 65.7867 196.131 66.128C196.259 66.448 196.323 66.8747 196.323 67.408V70.544C196.856 70.3307 197.358 70.1813 197.827 70.096C198.318 70.0107 198.851 69.968 199.427 69.968C200.451 69.968 201.422 70.1493 202.339 70.512C203.256 70.8747 204.067 71.408 204.771 72.112C205.475 72.7947 206.03 73.648 206.435 74.672C206.84 75.696 207.043 76.88 207.043 78.224C207.043 79.6107 206.83 80.8267 206.403 81.872C205.998 82.896 205.422 83.7493 204.675 84.432C203.928 85.1147 203.011 85.6373 201.923 86C200.856 86.3413 199.672 86.512 198.371 86.512C196.963 86.512 195.768 86.3413 194.787 86C193.806 85.68 192.974 85.2747 192.291 84.784C191.352 84.1227 190.883 83.2693 190.883 82.224V65.168ZM198.371 82.224C199.352 82.224 200.11 81.8933 200.643 81.232C201.198 80.5493 201.475 79.5467 201.475 78.224C201.475 76.88 201.198 75.8773 200.643 75.216C200.088 74.5547 199.342 74.224 198.403 74.224C197.976 74.224 197.603 74.2667 197.283 74.352C196.984 74.4373 196.654 74.5653 196.291 74.736V81.712C196.526 81.8613 196.803 81.9893 197.123 82.096C197.464 82.1813 197.88 82.224 198.371 82.224Z" fill="black"/>
<g filter="url(#filter1_d_618_13829)">
<path d="M158.857 20.4697L156.775 19.936L158.197 14.3811C158.386 13.6445 158.274 12.8631 157.887 12.2087C157.5 11.5544 156.869 11.0808 156.133 10.892L150.581 9.46881L151.115 7.38572C151.351 6.46493 151.211 5.48815 150.727 4.67024C150.243 3.85233 149.454 3.26029 148.534 3.02438C147.614 2.78846 146.638 2.92799 145.82 3.41226C145.003 3.89654 144.411 4.68589 144.175 5.60667L143.642 7.68976L138.091 6.26653C137.354 6.07779 136.573 6.18941 135.92 6.57683C135.266 6.96425 134.792 7.59574 134.604 8.33236L133.252 13.6095L135.334 14.1432C137.416 14.677 138.655 16.7704 138.121 18.8535C137.588 20.9366 135.496 22.1761 133.414 21.6424L131.332 21.1087L129.981 26.3858C129.792 27.1224 129.904 27.9039 130.291 28.5582C130.678 29.2125 131.309 29.6862 132.046 29.8749L137.319 31.227L137.853 29.1439C138.386 27.0608 140.478 25.8213 142.56 26.355C144.642 26.8887 145.881 28.9821 145.347 31.0652L144.814 33.1483L150.088 34.5004C150.824 34.6891 151.605 34.5775 152.259 34.1901C152.913 33.8027 153.386 33.1712 153.575 32.4346L154.997 26.8797L157.079 27.4134C157.999 27.6493 158.975 27.5098 159.793 27.0255C160.61 26.5412 161.202 25.7519 161.438 24.8311C161.673 23.9103 161.534 22.9335 161.05 22.1156C160.566 21.2977 159.777 20.7057 158.857 20.4697Z" fill="#FFD86E"/>
</g>
<defs>
<filter id="filter0_d_618_13829" x="0" y="31.6904" width="153.529" height="60.4653" filterUnits="userSpaceOnUse" color-interpolation-filters="sRGB">
<feFlood flood-opacity="0" result="BackgroundImageFix"/>
<feColorMatrix in="SourceAlpha" type="matrix" values="0 0 0 0 0 0 0 0 0 0 0 0 0 0 0 0 0 0 127 0" result="hardAlpha"/>
<feOffset dy="2"/>
<feGaussianBlur stdDeviation="2"/>
<feComposite in2="hardAlpha" operator="out"/>
<feColorMatrix type="matrix" values="0 0 0 0 0 0 0 0 0 0 0 0 0 0 0 0 0 0 0.25 0"/>
<feBlend mode="normal" in2="BackgroundImageFix" result="effect1_dropShadow_618_13829"/>
<feBlend mode="normal" in="SourceGraphic" in2="effect1_dropShadow_618_13829" result="shape"/>
</filter>
<filter id="filter1_d_618_13829" x="125.891" y="0.912109" width="39.6583" height="39.678" filterUnits="userSpaceOnUse" color-interpolation-filters="sRGB">
<feFlood flood-opacity="0" result="BackgroundImageFix"/>
<feColorMatrix in="SourceAlpha" type="matrix" values="0 0 0 0 0 0 0 0 0 0 0 0 0 0 0 0 0 0 127 0" result="hardAlpha"/>
<feOffset dy="2"/>
<feGaussianBlur stdDeviation="2"/>
<feComposite in2="hardAlpha" operator="out"/>
<feColorMatrix type="matrix" values="0 0 0 0 0 0 0 0 0 0 0 0 0 0 0 0 0 0 0.2 0"/>
<feBlend mode="normal" in2="BackgroundImageFix" result="effect1_dropShadow_618_13829"/>
<feBlend mode="normal" in="SourceGraphic" in2="effect1_dropShadow_618_13829" result="shape"/>
</filter>
</defs>
</svg>
