<svg width="54" height="54" viewBox="0 0 54 54" fill="none" xmlns="http://www.w3.org/2000/svg">
<path d="M34.875 31.5H33.0975L32.4675 30.8925C34.7489 28.2467 36.0027 24.8686 36 21.375C36 18.4825 35.1423 15.6549 33.5352 13.2498C31.9282 10.8447 29.6441 8.9702 26.9718 7.86327C24.2994 6.75634 21.3588 6.46671 18.5218 7.03102C15.6848 7.59533 13.0789 8.98823 11.0336 11.0336C8.98823 13.0789 7.59533 15.6848 7.03102 18.5218C6.46671 21.3588 6.75634 24.2994 7.86327 26.9718C8.9702 29.6441 10.8447 31.9282 13.2498 33.5352C15.6549 35.1423 18.4825 36 21.375 36C24.9975 36 28.3275 34.6725 30.8925 32.4675L31.5 33.0975V34.875L42.75 46.1025L46.1025 42.75L34.875 31.5ZM21.375 31.5C15.7725 31.5 11.25 26.9775 11.25 21.375C11.25 15.7725 15.7725 11.25 21.375 11.25C26.9775 11.25 31.5 15.7725 31.5 21.375C31.5 26.9775 26.9775 31.5 21.375 31.5Z" fill="black"/>
</svg>
