<svg width="225" height="104" viewBox="0 0 225 104" fill="none" xmlns="http://www.w3.org/2000/svg">
<g filter="url(#filter0_d_912_23867)">
<path d="M96.9959 52.8036C97.248 56.5739 101.963 60.6999 105.731 60.4476C109.499 60.1953 109.529 55.7516 109.277 51.9813C109.024 48.2109 108.403 43.8109 104.635 44.0632C100.867 44.3155 96.7437 49.0332 96.9959 52.8036Z" fill="#FFD86E"/>
<path d="M149.529 66.4507C149.529 69.4065 149.009 72.116 147.97 74.5792C146.985 76.9876 145.535 79.0676 143.621 80.8192C141.706 82.516 139.381 83.8297 136.646 84.7602C133.911 85.6907 130.82 86.156 127.374 86.156C123.928 86.156 120.837 85.6907 118.102 84.7602C115.367 83.8297 113.042 82.516 111.127 80.8192C109.213 79.0676 107.736 76.9876 106.696 74.5792C105.712 72.116 105.219 69.4065 105.219 66.4507V35.0865C105.821 34.9771 106.778 34.8402 108.091 34.676C109.404 34.4571 110.662 34.3476 111.866 34.3476C113.124 34.3476 114.218 34.4571 115.148 34.676C116.133 34.8402 116.953 35.1686 117.61 35.6613C118.266 36.1539 118.758 36.8381 119.087 37.7139C119.415 38.5897 119.579 39.7392 119.579 41.1623V66.2044C119.579 68.8318 120.29 70.8844 121.712 72.3623C123.189 73.8402 125.076 74.5792 127.374 74.5792C129.726 74.5792 131.613 73.8402 133.036 72.3623C134.458 70.8844 135.169 68.8318 135.169 66.2044V35.0865C135.771 34.9771 136.728 34.8402 138.041 34.676C139.354 34.4571 140.336 34.3284 141.816 34.3476C143.104 34.3642 144.168 34.4571 145.098 34.676C146.082 34.8402 146.903 35.1686 147.559 35.6613C148.216 36.1539 148.708 36.8381 149.036 37.7139C149.365 38.5897 149.529 39.7392 149.529 41.1623V66.4507Z" fill="#FFD86E"/>
<path d="M80.2029 72.6103C79.4918 73.2124 78.5618 73.705 77.413 74.0882C76.319 74.4166 75.0335 74.5808 73.5565 74.5808C71.5872 74.5808 69.9461 74.3345 68.6332 73.8419C67.375 73.3492 66.5545 72.5008 66.1716 71.2966C64.6399 66.4798 63.3817 62.5935 62.3971 59.6377C61.4124 56.6271 60.6466 53.9998 60.0996 51.7556H59.6893C59.5252 54.985 59.3884 57.9408 59.279 60.6229C59.2243 63.2503 59.1696 65.8229 59.1149 68.3408C59.1149 70.8587 59.0602 73.404 58.9508 75.9766C58.8961 78.5492 58.7867 81.3956 58.6226 84.5156C57.9114 84.7892 56.9815 85.0082 55.8327 85.1724C54.684 85.3914 53.5352 85.5008 52.3864 85.5008C49.9795 85.5008 48.0922 85.1177 46.7247 84.3513C45.4118 83.585 44.4802 81.3955 44.4802 79.3703C44.4802 79.3703 48.5501 77.5401 49.9505 75.265C51.1052 73.3889 51.318 71.9947 51.318 69.7913C51.318 67.5879 51.0915 66.2021 49.9505 64.3176C48.8335 62.4729 45.8477 60.6229 45.8477 60.6229L47.1349 38.2903C47.5726 37.5787 48.5299 36.8124 50.0069 35.9913C51.4838 35.1703 53.5625 34.7598 56.243 34.7598C59.1423 34.7598 61.4124 35.225 63.0535 36.1556C64.6946 37.0313 65.8981 38.4819 66.6639 40.5071C67.1562 41.8208 67.6759 43.3261 68.2229 45.0229C68.8247 46.7198 69.3991 48.4713 69.9461 50.2777C70.5478 52.084 71.1222 53.8903 71.6692 55.6966C72.2163 57.4482 72.7086 59.0356 73.1462 60.4587H73.5565C74.8694 55.8608 76.1822 51.4271 77.4951 47.1577C78.808 42.8334 80.0114 39.2208 81.1055 36.3198C81.926 35.8819 82.9654 35.5261 84.2236 35.2524C85.5364 34.924 86.9861 34.7598 88.5725 34.7598C91.2529 34.7598 93.441 35.1703 95.1368 35.9913C96.8326 36.7577 97.8173 37.8798 98.0908 39.3577C98.3096 40.4524 98.7472 44.4482 98.7472 44.4482C98.7472 44.4482 96.1032 46.2175 95.0804 47.8966C93.9344 49.778 93.7128 51.1669 93.7128 53.3703C93.7128 55.5737 93.6619 57.1586 95.0804 58.8439C96.5327 60.5694 100.388 61.1156 100.388 61.1156C100.388 61.1156 100.908 67.3556 101.127 70.3114C101.4 73.2124 101.619 75.8945 101.783 78.3577C101.947 80.7661 102.057 82.6271 102.111 83.9408C101.181 84.4882 100.197 84.8713 99.1575 85.0903C98.1728 85.364 96.8873 85.5008 95.3009 85.5008C93.2222 85.5008 91.4717 85.145 90.0494 84.4335C88.6272 83.7219 87.8613 82.3261 87.7519 80.2461C87.4237 74.2798 87.2049 68.9156 87.0955 64.1535C87.0408 59.3913 86.9314 55.3956 86.7673 52.1661H86.357C85.81 54.3008 85.0168 56.9829 83.9774 60.2124C82.938 63.4419 81.6799 67.5745 80.2029 72.6103Z" fill="#CFD1CC"/>
<path d="M48.5829 69.7906C48.5829 73.5694 44.1539 78.0011 40.3774 78.0011C36.601 78.0011 36.2747 73.5694 36.2747 69.7906C36.2747 66.0118 36.601 61.5801 40.3774 61.5801C44.1539 61.5801 48.5829 66.0118 48.5829 69.7906Z" fill="#002F6C"/>
<path d="M20.1647 65.0556C17.7578 64.2346 15.5697 63.4135 13.6004 62.5925C11.6311 61.7167 9.93527 60.6767 8.513 59.4725C7.09072 58.2682 5.96931 56.8451 5.14876 55.203C4.38292 53.5061 4 51.4535 4 49.0451C4 44.3925 5.77785 40.6704 9.33354 37.8788C12.9439 35.0872 17.9766 33.6914 24.4316 33.6914C26.7838 33.6914 28.9719 33.8556 30.9959 34.184C33.0199 34.5125 34.7431 35.0325 36.1654 35.744C37.6423 36.4009 38.7911 37.2767 39.6116 38.3714C40.4322 39.4114 40.8425 40.643 40.8425 42.0661C40.8425 43.4893 40.5142 44.7209 39.8578 45.7609C39.2014 46.7461 38.4082 47.5946 37.4782 48.3061C36.2748 47.5398 34.661 46.883 32.637 46.3356C30.613 45.7335 28.3975 45.4325 25.9906 45.4325C23.529 45.4325 21.7238 45.7882 20.575 46.4998C19.4262 47.1567 18.8519 48.0051 18.8519 49.0451C18.8519 49.8661 19.2074 50.5504 19.9186 51.0977C20.6297 51.5904 21.6964 52.0556 23.1187 52.4935L27.4676 53.8893C32.6097 55.5314 36.5483 57.6388 39.2834 60.2114C42.0733 62.7293 43.4682 66.1777 43.4682 70.5567C43.4682 75.2093 41.6357 78.9861 37.9706 81.8872C34.3055 84.7335 28.9172 86.1567 21.8058 86.1567C19.2895 86.1567 16.9373 85.9377 14.7491 85.4998C12.6157 85.1167 10.7285 84.5419 9.08738 83.7756C7.50099 82.9546 6.24282 81.9693 5.31287 80.8198C4.43762 79.6156 4 78.2472 4 76.7146C4 75.1272 4.46498 73.7861 5.39493 72.6914C6.32488 71.5419 7.33688 70.6661 8.43094 70.064C9.96263 71.2683 11.8225 72.3083 14.0106 73.184C16.2535 74.0598 18.6878 74.4977 21.3135 74.4977C23.9939 74.4977 25.8812 74.0872 26.9753 73.2661C28.0693 72.4451 28.6163 71.4872 28.6163 70.3925C28.6163 69.2977 28.1787 68.4767 27.3035 67.9293C26.4282 67.3272 25.1974 66.7525 23.611 66.2051L20.1647 65.0556Z" fill="#002F6C"/>
</g>
<path d="M161.968 70.512C160.325 70.512 159.067 71.0133 158.192 72.016C157.317 73.0187 156.88 74.4373 156.88 76.272C156.88 78.128 157.36 79.5573 158.32 80.56C159.301 81.5627 160.613 82.064 162.256 82.064C163.131 82.064 163.867 81.9467 164.464 81.712C165.083 81.4773 165.669 81.2107 166.224 80.912C166.587 81.2107 166.864 81.5733 167.056 82C167.269 82.4053 167.376 82.8853 167.376 83.44C167.376 84.3147 166.885 85.0613 165.904 85.68C164.944 86.2773 163.472 86.576 161.488 86.576C160.059 86.576 158.715 86.3733 157.456 85.968C156.197 85.5627 155.099 84.944 154.16 84.112C153.221 83.2587 152.475 82.192 151.92 80.912C151.387 79.6107 151.12 78.064 151.12 76.272C151.12 74.608 151.376 73.1467 151.888 71.888C152.421 70.608 153.136 69.5307 154.032 68.656C154.949 67.7813 156.016 67.12 157.232 66.672C158.448 66.224 159.749 66 161.136 66C163.099 66 164.613 66.32 165.68 66.96C166.768 67.6 167.312 68.4213 167.312 69.424C167.312 69.9787 167.173 70.4587 166.896 70.864C166.619 71.2693 166.299 71.5893 165.936 71.824C165.381 71.4613 164.784 71.152 164.144 70.896C163.525 70.64 162.8 70.512 161.968 70.512ZM173.241 85.968C173.007 86.0107 172.655 86.064 172.185 86.128C171.737 86.2133 171.279 86.256 170.809 86.256C170.34 86.256 169.913 86.224 169.529 86.16C169.167 86.096 168.857 85.968 168.601 85.776C168.345 85.584 168.143 85.328 167.993 85.008C167.865 84.6667 167.801 84.2293 167.801 83.696V65.136C168.036 65.0933 168.377 65.04 168.825 64.976C169.295 64.8907 169.764 64.848 170.233 64.848C170.703 64.848 171.119 64.88 171.481 64.944C171.865 65.008 172.185 65.136 172.441 65.328C172.697 65.52 172.889 65.7867 173.017 66.128C173.167 66.448 173.241 66.8747 173.241 67.408V85.968ZM174.434 70.672C174.647 70.608 174.978 70.544 175.426 70.48C175.895 70.416 176.375 70.384 176.866 70.384C177.335 70.384 177.751 70.416 178.114 70.48C178.498 70.544 178.818 70.672 179.074 70.864C179.33 71.056 179.522 71.3227 179.65 71.664C179.799 71.984 179.874 72.4107 179.874 72.944V79.824C179.874 80.6987 180.087 81.328 180.514 81.712C180.941 82.0747 181.559 82.256 182.37 82.256C182.861 82.256 183.255 82.2133 183.554 82.128C183.874 82.0427 184.119 81.9573 184.29 81.872V70.672C184.503 70.608 184.834 70.544 185.282 70.48C185.751 70.416 186.231 70.384 186.722 70.384C187.191 70.384 187.607 70.416 187.97 70.48C188.354 70.544 188.674 70.672 188.93 70.864C189.186 71.056 189.378 71.3227 189.506 71.664C189.655 71.984 189.73 72.4107 189.73 72.944V82.672C189.73 83.7387 189.282 84.5387 188.386 85.072C187.639 85.5413 186.743 85.8933 185.698 86.128C184.674 86.384 183.554 86.512 182.338 86.512C181.186 86.512 180.119 86.384 179.138 86.128C178.178 85.872 177.346 85.4773 176.642 84.944C175.938 84.4107 175.394 83.728 175.01 82.896C174.626 82.0427 174.434 81.0187 174.434 79.824V70.672ZM190.883 65.168C191.096 65.104 191.438 65.04 191.907 64.976C192.376 64.8907 192.856 64.848 193.347 64.848C193.816 64.848 194.232 64.88 194.595 64.944C194.979 65.008 195.299 65.136 195.555 65.328C195.811 65.52 196.003 65.7867 196.131 66.128C196.259 66.448 196.323 66.8747 196.323 67.408V70.544C196.856 70.3307 197.358 70.1813 197.827 70.096C198.318 70.0107 198.851 69.968 199.427 69.968C200.451 69.968 201.422 70.1493 202.339 70.512C203.256 70.8747 204.067 71.408 204.771 72.112C205.475 72.7947 206.03 73.648 206.435 74.672C206.84 75.696 207.043 76.88 207.043 78.224C207.043 79.6107 206.83 80.8267 206.403 81.872C205.998 82.896 205.422 83.7493 204.675 84.432C203.928 85.1147 203.011 85.6373 201.923 86C200.856 86.3413 199.672 86.512 198.371 86.512C196.963 86.512 195.768 86.3413 194.787 86C193.806 85.68 192.974 85.2747 192.291 84.784C191.352 84.1227 190.883 83.2693 190.883 82.224V65.168ZM198.371 82.224C199.352 82.224 200.11 81.8933 200.643 81.232C201.198 80.5493 201.475 79.5467 201.475 78.224C201.475 76.88 201.198 75.8773 200.643 75.216C200.088 74.5547 199.342 74.224 198.403 74.224C197.976 74.224 197.603 74.2667 197.283 74.352C196.984 74.4373 196.654 74.5653 196.291 74.736V81.712C196.526 81.8613 196.803 81.9893 197.123 82.096C197.464 82.1813 197.88 82.224 198.371 82.224Z" fill="black"/>
<g filter="url(#filter1_d_912_23867)">
<path d="M158.857 20.4697L156.775 19.936L158.197 14.3811C158.386 13.6445 158.274 12.8631 157.887 12.2087C157.5 11.5544 156.869 11.0808 156.133 10.892L150.581 9.46881L151.115 7.38572C151.351 6.46493 151.211 5.48815 150.727 4.67024C150.243 3.85233 149.454 3.26029 148.534 3.02438C147.614 2.78846 146.638 2.92799 145.82 3.41226C145.003 3.89654 144.411 4.68589 144.175 5.60667L143.642 7.68976L138.091 6.26653C137.354 6.07779 136.573 6.18941 135.92 6.57683C135.266 6.96425 134.792 7.59574 134.604 8.33236L133.252 13.6095L135.334 14.1432C137.416 14.677 138.655 16.7704 138.121 18.8535C137.588 20.9366 135.496 22.1761 133.414 21.6424L131.332 21.1087L129.981 26.3858C129.792 27.1224 129.904 27.9039 130.291 28.5582C130.678 29.2125 131.309 29.6862 132.046 29.8749L137.319 31.227L137.853 29.1439C138.386 27.0608 140.478 25.8213 142.56 26.355C144.642 26.8887 145.881 28.9821 145.347 31.0652L144.814 33.1483L150.088 34.5004C150.824 34.6891 151.605 34.5775 152.259 34.1901C152.913 33.8027 153.386 33.1712 153.575 32.4346L154.997 26.8797L157.079 27.4134C157.999 27.6493 158.975 27.5098 159.793 27.0255C160.61 26.5412 161.202 25.7519 161.438 24.8311C161.673 23.9103 161.534 22.9335 161.05 22.1156C160.566 21.2977 159.777 20.7057 158.857 20.4697Z" fill="#FFD86E"/>
</g>
<defs>
<filter id="filter0_d_912_23867" x="0" y="31.6914" width="153.529" height="60.4648" filterUnits="userSpaceOnUse" color-interpolation-filters="sRGB">
<feFlood flood-opacity="0" result="BackgroundImageFix"/>
<feColorMatrix in="SourceAlpha" type="matrix" values="0 0 0 0 0 0 0 0 0 0 0 0 0 0 0 0 0 0 127 0" result="hardAlpha"/>
<feOffset dy="2"/>
<feGaussianBlur stdDeviation="2"/>
<feComposite in2="hardAlpha" operator="out"/>
<feColorMatrix type="matrix" values="0 0 0 0 0 0 0 0 0 0 0 0 0 0 0 0 0 0 0.25 0"/>
<feBlend mode="normal" in2="BackgroundImageFix" result="effect1_dropShadow_912_23867"/>
<feBlend mode="normal" in="SourceGraphic" in2="effect1_dropShadow_912_23867" result="shape"/>
</filter>
<filter id="filter1_d_912_23867" x="125.891" y="0.912109" width="39.6583" height="39.6777" filterUnits="userSpaceOnUse" color-interpolation-filters="sRGB">
<feFlood flood-opacity="0" result="BackgroundImageFix"/>
<feColorMatrix in="SourceAlpha" type="matrix" values="0 0 0 0 0 0 0 0 0 0 0 0 0 0 0 0 0 0 127 0" result="hardAlpha"/>
<feOffset dy="2"/>
<feGaussianBlur stdDeviation="2"/>
<feComposite in2="hardAlpha" operator="out"/>
<feColorMatrix type="matrix" values="0 0 0 0 0 0 0 0 0 0 0 0 0 0 0 0 0 0 0.2 0"/>
<feBlend mode="normal" in2="BackgroundImageFix" result="effect1_dropShadow_912_23867"/>
<feBlend mode="normal" in="SourceGraphic" in2="effect1_dropShadow_912_23867" result="shape"/>
</filter>
</defs>
</svg>
